<?xml version="1.0" encoding="UTF-8" standalone="no"?>
<!DOCTYPE svg PUBLIC "-//W3C//DTD SVG 1.1//EN" "http://www.w3.org/Graphics/SVG/1.1/DTD/svg11.dtd">
<svg xmlns="http://www.w3.org/2000/svg" version="1.1" viewBox="0 0 697 697">
<g stroke-width="2.00" fill="none" stroke-linecap="butt">
<path stroke="#fcfcfc" stroke-opacity="0.506" vector-effect="non-scaling-stroke" d="
  M 696.06 0.00
  L 695.85 697.00"
/>
<path stroke="#82a5a5" vector-effect="non-scaling-stroke" d="
  M 234.51 297.66
  Q 244.03 292.07 254.43 286.42
  Q 258.16 284.39 262.20 283.27
  A 1.08 1.08 69.5 0 1 263.47 283.85
  Q 266.85 291.11 274.21 288.87
  Q 281.69 286.60 288.77 283.24
  Q 291.68 281.86 290.94 285.00
  Q 279.94 331.60 269.81 379.31
  Q 269.40 381.23 268.22 382.81
  Q 265.34 386.68 263.06 391.81
  Q 259.33 400.19 244.59 427.93
  Q 244.06 428.93 243.71 429.40
  Q 241.99 431.66 242.26 426.99
  Q 243.58 404.07 246.00 381.25
  Q 246.90 372.80 244.75 365.90
  Q 243.79 362.82 243.37 361.99
  Q 242.40 360.07 240.46 358.86
  Q 239.16 358.06 235.81 355.19
  Q 230.89 350.96 223.48 352.12
  Q 214.42 353.53 206.35 357.53
  Q 200.88 360.24 195.49 365.13
  Q 190.56 369.61 186.21 374.69
  Q 183.57 377.77 183.00 379.75
  Q 172.10 417.54 178.14 456.48
  Q 180.19 469.75 188.97 480.40
  A 0.78 0.78 48.4 0 1 188.91 481.46
  Q 184.18 486.00 179.68 490.93
  Q 176.61 494.28 175.59 496.66
  Q 174.17 499.97 174.21 503.75
  Q 174.25 507.13 174.43 510.49
  Q 174.71 515.57 178.23 518.17
  Q 180.21 519.64 184.64 520.21
  Q 188.03 520.65 191.43 521.01
  A 0.55 0.54 3.4 0 1 191.93 521.56
  Q 191.88 533.74 192.25 536.50
  Q 193.43 545.21 201.75 547.75
  Q 204.93 548.72 216.50 548.75
  A 0.55 0.55 -2.9 0 1 217.05 549.24
  Q 217.30 551.99 217.41 554.74
  Q 217.60 559.04 218.04 560.69
  Q 220.34 569.17 230.25 569.39
  Q 231.32 569.41 236.75 569.25
  Q 245.14 569.00 250.50 564.25
  Q 255.98 559.41 260.80 553.93
  Q 263.45 550.92 264.44 548.51
  Q 265.71 545.43 265.86 542.00
  Q 265.96 539.50 266.00 532.75
  Q 266.01 530.38 267.97 530.91
  A 0.67 0.61 -82.9 0 1 268.43 531.56
  Q 268.34 546.76 272.09 561.48
  Q 272.82 564.34 274.41 566.83
  Q 276.53 570.13 280.49 570.35
  Q 288.45 570.78 296.40 570.36
  Q 296.45 570.36 300.11 570.36
  Q 302.63 570.35 303.94 569.44
  Q 307.95 566.62 314.77 559.01
  Q 317.89 555.53 317.47 550.32
  Q 317.31 548.45 318.95 549.36
  Q 324.89 552.65 331.28 549.95
  A 1.41 1.35 -46.2 0 1 332.22 549.91
  Q 340.38 552.63 349.35 550.70
  Q 350.85 550.37 352.36 550.70
  Q 359.30 552.20 366.28 551.07
  Q 367.83 550.82 369.72 551.09
  Q 371.48 551.34 373.24 551.21
  Q 377.42 550.90 378.41 550.94
  Q 384.58 551.22 390.75 551.20
  Q 390.89 551.20 394.09 550.82
  Q 395.68 550.63 397.50 551.00
  Q 399.80 551.47 402.54 551.16
  Q 405.30 550.85 407.46 551.13
  Q 413.17 551.88 418.89 551.27
  Q 420.86 551.06 423.12 551.18
  Q 425.25 551.30 427.37 551.14
  Q 431.00 550.86 433.62 551.14
  Q 438.04 551.61 442.26 551.57
  A 2.51 2.51 -14.9 0 1 444.49 552.86
  Q 447.49 558.25 453.00 559.25
  Q 458.48 560.25 466.01 558.61
  Q 466.49 558.50 466.97 558.64
  Q 475.07 560.98 480.62 554.85
  Q 483.94 551.19 487.53 547.79
  Q 490.17 545.29 491.00 542.50
  Q 493.86 532.84 497.08 518.63
  Q 498.60 511.93 498.44 510.32
  Q 497.95 505.27 491.57 503.56
  A 0.94 0.94 29.2 0 1 491.13 502.01
  Q 494.91 498.03 498.50 494.50
  Q 501.94 491.11 501.98 486.25
  Q 502.05 477.28 501.94 468.31
  Q 501.87 462.67 497.40 460.02
  Q 495.26 458.75 491.33 458.75
  Q 487.16 458.75 483.00 458.75
  Q 482.26 458.75 480.54 459.04
  Q 479.29 459.25 478.04 459.09
  Q 475.03 458.70 474.93 458.70
  Q 471.03 458.55 467.41 458.28
  A 0.95 0.94 86.8 0 1 466.55 457.50
  Q 465.42 450.92 459.60 449.74
  Q 456.12 449.04 453.00 450.75
  Q 450.97 451.86 448.77 451.80
  Q 445.21 451.70 444.73 451.81
  Q 440.45 452.82 437.56 456.61
  Q 435.98 458.67 433.39 458.49
  Q 428.77 458.17 424.23 459.37
  A 1.76 1.56 44.5 0 1 423.27 459.32
  Q 419.68 458.05 415.25 459.00
  Q 413.67 459.34 411.67 458.98
  Q 409.43 458.58 408.15 458.61
  Q 399.66 458.80 393.50 458.50
  Q 387.73 458.22 382.69 458.50
  Q 379.50 458.69 376.32 458.32
  Q 373.14 457.95 369.93 457.83
  A 0.39 0.37 -79.8 0 1 369.60 457.33
  Q 371.17 452.34 368.78 448.24
  Q 367.27 445.66 364.10 444.72
  Q 359.30 443.31 354.62 444.85
  Q 351.94 445.73 348.71 448.82
  Q 343.93 453.39 339.20 457.70
  Q 338.68 458.17 338.72 457.47
  Q 338.88 454.01 338.34 451.33
  Q 337.22 445.66 331.74 444.36
  A 0.79 0.73 2.8 0 1 331.15 443.76
  Q 330.52 439.95 334.22 440.17
  Q 335.66 440.25 335.80 440.25
  Q 351.19 440.28 368.25 440.25
  A 2.73 2.71 -18.0 0 1 370.48 441.38
  Q 373.93 446.13 378.58 448.94
  Q 383.15 451.69 388.84 452.31
  Q 399.55 453.48 407.94 446.19
  Q 418.43 437.06 421.19 433.19
  Q 423.71 429.63 425.69 426.04
  A 1.63 1.62 19.9 0 1 427.43 425.23
  Q 434.27 426.62 440.56 424.76
  Q 445.58 423.27 451.24 418.46
  Q 455.22 415.08 460.44 409.94
  Q 473.56 397.01 467.55 379.39
  A 0.63 0.62 -12.8 0 1 468.07 378.57
  Q 480.65 377.21 489.12 368.87
  Q 496.11 362.00 498.06 359.56
  Q 507.54 347.77 503.38 334.58
  Q 501.37 328.25 496.96 323.97
  Q 492.21 319.36 485.68 317.79
  Q 479.83 316.38 473.83 317.90
  Q 467.93 319.39 462.88 323.23
  A 1.08 1.07 -33.8 0 1 461.30 322.92
  Q 457.72 316.72 451.33 319.59
  Q 451.30 319.61 449.70 320.47
  Q 445.47 322.76 441.50 320.25
  Q 435.78 316.64 434.00 316.00
  Q 430.23 314.65 427.56 316.56
  Q 425.49 318.04 417.54 325.84
  A 1.46 1.42 18.4 0 1 416.69 326.25
  Q 409.37 327.09 402.00 326.68
  Q 396.56 326.38 393.06 328.56
  Q 389.82 330.58 384.67 335.93
  Q 378.41 342.41 371.13 349.76
  A 3.59 3.57 -69.5 0 1 368.87 350.80
  Q 361.63 351.35 353.73 350.75
  A 0.50 0.49 10.4 0 1 353.29 350.12
  Q 368.06 297.33 387.02 245.76
  Q 388.32 242.22 388.38 242.12
  Q 389.39 240.50 391.69 239.69
  Q 415.20 231.35 438.83 223.36
  Q 479.33 209.65 521.46 206.29
  A 4.89 4.85 22.9 0 0 524.17 205.20
  Q 530.71 199.82 536.11 193.33
  A 1.73 1.63 -22.9 0 0 536.50 192.45
  Q 537.00 188.24 536.71 184.04
  Q 536.49 180.81 534.89 179.06
  Q 532.84 176.80 529.75 176.50
  Q 516.90 175.26 504.45 174.77
  Q 502.40 174.69 503.87 173.25
  Q 509.69 167.56 515.17 161.67
  Q 518.74 157.83 517.75 153.59
  Q 517.04 150.52 513.27 147.50
  Q 510.01 144.89 506.28 142.94
  Q 503.51 141.50 499.75 141.50
  Q 472.69 141.50 445.64 141.50
  Q 439.51 141.50 433.96 142.55
  Q 397.22 149.50 361.56 163.56
  Q 296.34 189.29 237.44 224.94
  Q 199.02 248.19 174.50 264.20
  Q 167.42 268.82 162.98 272.95
  Q 158.47 277.13 152.69 283.19
  Q 150.82 285.15 149.71 286.61
  Q 148.50 288.21 148.39 290.75
  Q 148.16 296.20 148.21 301.65
  Q 148.25 307.23 148.28 307.34
  Q 148.94 310.48 152.69 311.83
  A 0.78 0.76 8.1 0 1 153.21 312.51
  Q 153.49 316.25 155.06 319.11
  Q 157.84 324.17 161.20 328.86
  Q 164.70 333.76 169.69 331.94
  Q 173.73 330.46 186.29 323.07
  Q 189.11 321.41 191.87 320.61
  Q 192.73 320.36 192.50 321.23
  Q 189.60 332.40 195.80 341.94
  Q 198.00 345.32 202.44 346.56
  Q 211.01 348.96 218.99 347.29
  Q 223.42 346.36 227.72 343.17
  Q 235.93 337.07 241.81 328.64
  Q 243.70 325.92 244.46 323.41
  Q 245.42 320.26 245.25 317.50
  Q 244.97 312.78 242.89 307.57
  Q 241.57 304.24 239.81 302.48
  Q 237.68 300.35 234.64 299.21
  Q 232.94 298.57 234.51 297.66"
/>
<path stroke="#358249" vector-effect="non-scaling-stroke" d="
  M 287.91 373.64
  Q 284.96 376.46 283.31 379.81
  Q 270.12 406.66 256.14 433.11
  Q 251.95 441.03 244.18 445.42
  Q 241.88 446.72 239.76 446.04
  Q 237.99 445.47 236.86 443.30
  Q 235.75 441.15 235.75 439.25
  Q 235.75 435.50 235.94 431.76
  Q 237.32 404.74 239.95 377.82
  Q 240.33 373.86 240.11 371.66
  Q 239.80 368.58 238.79 365.61
  Q 238.38 364.38 237.44 363.86
  A 0.37 0.37 21.2 0 0 236.89 364.10
  Q 233.61 378.87 231.86 393.23
  Q 229.76 410.46 228.08 427.73
  Q 227.97 428.84 227.60 428.19
  Q 227.50 428.02 227.49 427.79
  Q 227.11 422.03 227.46 416.25
  Q 229.04 390.70 232.50 365.35
  Q 232.94 362.12 232.89 361.65
  Q 232.66 359.20 229.75 358.77
  Q 227.26 358.40 224.76 358.80
  Q 216.73 360.08 209.61 363.83
  Q 206.08 365.68 204.83 366.64
  Q 202.28 368.57 201.50 371.25
  Q 191.18 406.64 197.59 445.29
  Q 198.70 451.98 201.50 456.75
  Q 208.58 468.83 221.04 470.47
  Q 229.84 471.62 240.41 466.92
  Q 253.01 461.32 261.44 450.69
  Q 270.88 438.77 279.71 421.25"
/>
<path stroke="#1f8080" vector-effect="non-scaling-stroke" d="
  M 279.71 421.25
  Q 271.57 468.64 269.63 514.99
  Q 269.51 517.94 271.16 515.49
  Q 279.65 502.82 282.55 487.86
  Q 285.08 474.79 287.93 461.79
  Q 289.31 455.53 291.51 449.49
  Q 292.49 446.77 292.24 449.65
  Q 291.11 462.39 289.82 475.26
  Q 288.68 486.61 288.25 498.01
  Q 287.70 512.41 287.72 517.99
  Q 287.79 532.19 290.49 546.20
  Q 292.03 554.17 300.25 554.17
  Q 305.10 554.17 310.48 552.91
  A 1.00 0.99 81.8 0 0 311.24 551.88
  Q 309.77 525.71 313.87 499.73
  Q 320.16 459.92 328.74 420.90
  A 0.83 0.82 6.0 0 1 329.55 420.25
  L 385.57 420.25
  A 1.32 1.31 77.0 0 1 386.75 420.99
  Q 391.50 430.66 400.33 432.38
  Q 406.27 433.54 411.74 430.83
  Q 417.56 427.94 420.00 421.74
  Q 421.77 417.25 421.08 412.58
  Q 420.34 407.56 417.12 403.84
  Q 413.39 399.52 407.95 398.17
  Q 402.42 396.79 396.61 399.19
  Q 391.09 401.47 387.88 407.23
  A 1.48 1.48 14.3 0 1 386.58 408.00
  L 332.68 408.00
  A 0.69 0.68 6.3 0 1 332.00 407.17
  L 334.83 395.00
  A 0.66 0.64 6.0 0 1 335.47 394.50
  L 428.10 394.50
  A 1.18 1.18 78.1 0 1 429.18 395.21
  Q 434.02 406.41 445.62 406.50
  Q 449.76 406.54 453.17 404.95
  Q 456.90 403.20 459.42 400.08
  Q 462.78 395.90 463.10 389.71
  Q 463.60 380.28 456.52 375.14
  Q 450.11 370.48 442.57 371.71
  Q 434.25 373.06 429.56 381.68
  A 1.11 1.09 14.0 0 1 428.59 382.25
  L 338.57 382.25
  A 0.51 0.51 -82.2 0 1 338.08 381.60
  L 341.04 370.67
  A 1.25 1.24 -82.4 0 1 342.24 369.75
  L 378.50 369.75
  A 3.31 3.26 22.0 0 0 380.84 368.78
  L 402.92 346.71
  Q 404.13 345.49 405.88 345.49
  L 462.51 345.49
  A 1.77 1.77 -11.1 0 1 464.15 346.59
  Q 467.10 353.93 473.09 356.92
  Q 478.96 359.85 485.66 358.08
  Q 491.23 356.61 494.77 351.97
  Q 497.75 348.06 498.44 343.41
  Q 499.19 338.40 496.94 333.81
  Q 492.42 324.60 482.92 323.68
  Q 477.37 323.14 472.91 325.53
  Q 468.46 327.91 465.14 332.80
  A 1.61 1.59 -72.6 0 1 463.82 333.50
  L 399.48 333.50
  A 2.06 2.00 21.6 0 0 398.03 334.10
  L 375.65 356.74
  A 2.64 2.57 -68.3 0 1 373.90 357.52
  Q 359.83 358.05 345.18 357.34
  A 0.41 0.40 -80.6 0 1 344.82 356.83
  Q 360.74 298.24 381.76 241.27
  Q 381.78 241.21 383.05 237.57
  Q 384.99 231.97 387.81 228.31
  Q 390.88 224.34 396.28 222.66
  Q 399.10 221.77 399.19 221.74
  Q 429.69 211.02 438.75 207.75
  Q 484.62 191.18 533.26 187.00
  A 0.38 0.37 -16.6 0 0 533.56 186.45
  Q 532.04 183.60 529.14 182.93
  Q 529.00 182.90 523.84 182.59
  Q 498.74 181.06 492.50 181.00
  Q 463.76 180.72 436.85 190.70
  Q 431.83 192.57 426.75 194.26
  Q 426.67 194.29 423.42 195.48
  Q 419.44 196.96 415.19 197.03
  Q 413.24 197.06 411.91 196.45
  Q 410.17 195.65 409.31 194.19
  Q 407.47 191.03 406.60 187.87
  A 0.82 0.82 72.9 0 1 407.12 186.88
  Q 441.43 174.90 475.36 162.46
  Q 480.69 160.51 486.75 160.75
  Q 492.33 160.97 499.42 160.24
  Q 506.31 159.53 511.81 154.85
  A 0.46 0.45 46.2 0 0 511.82 154.17
  Q 504.75 147.80 495.75 146.00
  Q 489.00 144.65 477.25 144.92
  Q 462.95 145.25 448.78 147.24
  Q 411.70 152.43 376.56 165.31
  Q 333.75 181.01 293.37 202.17
  Q 233.84 233.36 177.94 270.69
  Q 171.73 274.83 167.76 279.02
  Q 165.33 281.59 164.52 284.76
  Q 163.68 288.04 163.74 291.49
  A 0.36 0.36 -10.9 0 0 164.23 291.82
  Q 173.72 288.26 182.21 282.68
  Q 192.91 275.65 205.26 272.25
  Q 207.15 271.73 206.08 273.37
  Q 200.90 281.30 191.57 286.33
  Q 189.98 287.19 181.94 291.94
  Q 176.06 295.41 172.53 300.58
  A 0.88 0.78 -43.8 0 0 172.46 301.46
  L 178.62 312.59
  A 1.00 0.94 -29.3 0 0 179.96 312.92
  Q 200.45 301.49 221.28 290.62
  Q 242.26 279.68 262.96 268.22
  Q 276.61 260.65 293.72 257.70
  Q 295.24 257.44 294.05 258.42
  Q 288.34 263.09 283.17 267.54
  Q 282.43 268.17 282.16 268.77
  Q 281.49 270.23 283.02 270.42
  Q 283.76 270.51 284.78 270.08
  Q 298.55 264.28 313.35 258.04
  Q 314.00 257.76 313.83 258.45
  Q 299.66 316.36 287.91 373.64"
/>
<path stroke="#4fb67f" vector-effect="non-scaling-stroke" d="
  M 279.71 421.25
  Q 289.02 402.46 297.57 383.32
  Q 299.01 380.09 298.71 376.78
  Q 298.47 374.15 295.99 373.25
  Q 292.38 371.94 289.39 373.86
  Q 289.08 374.06 287.91 373.64"
/>
<path stroke="#358249" vector-effect="non-scaling-stroke" d="
  M 217.98 328.19
  Q 223.84 329.69 229.62 328.23
  Q 234.27 327.05 236.59 324.44
  Q 239.43 321.24 239.11 316.24
  Q 238.81 311.48 236.46 307.68
  A 3.89 3.82 -1.8 0 0 234.90 306.24
  Q 230.07 303.78 225.41 303.40
  Q 220.06 302.96 216.14 305.55
  Q 210.61 309.22 210.75 317.25
  Q 210.83 321.82 213.23 325.15
  Q 214.86 327.39 217.98 328.19"
/>
<path stroke="#82a5a5" vector-effect="non-scaling-stroke" d="
  M 387.31 375.29
  Q 403.25 375.63 418.38 375.51
  Q 418.47 375.51 420.61 375.63
  Q 423.23 375.79 424.69 374.19
  Q 429.57 368.82 436.31 365.97
  Q 437.34 365.54 436.23 365.49
  Q 418.32 364.68 400.14 364.98
  Q 400.07 364.99 398.36 364.92
  Q 395.78 364.82 394.19 366.44
  Q 390.65 370.03 386.88 374.30
  Q 386.03 375.27 387.31 375.29"
/>
<path stroke="#358057" vector-effect="non-scaling-stroke" d="
  M 331.75 451.55
  A 0.47 0.47 0.0 0 0 331.28 451.08
  L 328.96 451.08
  A 0.47 0.47 0.0 0 0 328.49 451.55
  L 328.49 486.45
  A 0.47 0.47 0.0 0 0 328.96 486.92
  L 331.28 486.92
  A 0.47 0.47 0.0 0 0 331.75 486.45
  L 331.75 451.55"
/>
<path stroke="#337f55" vector-effect="non-scaling-stroke" d="
  M 356.17 468.81
  L 356.01 486.11
  A 0.79 0.78 5.3 0 0 356.66 486.88
  Q 358.81 487.30 359.20 486.25
  Q 359.24 486.14 359.26 484.23
  Q 359.35 476.32 359.09 469.20
  A 1.21 1.21 1.1 0 1 360.39 467.95
  Q 363.14 468.17 363.21 466.30
  A 0.87 0.79 16.9 0 0 362.76 465.55
  Q 361.35 464.76 359.93 464.90
  A 0.70 0.69 87.5 0 1 359.17 464.19
  L 359.24 455.11
  A 1.20 1.19 -86.6 0 1 360.56 453.92
  Q 364.00 454.32 363.45 451.92
  A 0.88 0.88 2.3 0 0 362.85 451.27
  Q 360.81 450.67 357.55 451.71
  A 1.72 1.71 -5.7 0 0 356.38 453.13
  Q 355.68 459.00 356.29 464.05
  A 0.86 0.85 -3.0 0 1 355.43 465.00
  Q 351.96 464.96 353.76 467.53
  A 1.33 0.66 0.4 0 0 354.57 467.94
  L 355.71 468.14
  A 0.70 0.55 -86.2 0 1 356.17 468.81"
/>
<path stroke="#358057" vector-effect="non-scaling-stroke" d="
  M 460.3346 456.6092
  A 0.53 0.53 0.0 0 0 459.7945 456.0895
  L 457.6149 456.1314
  A 0.53 0.53 0.0 0 0 457.0952 456.6714
  L 457.1654 460.3308
  A 0.53 0.53 0.0 0 0 457.7055 460.8505
  L 459.8851 460.8086
  A 0.53 0.53 0.0 0 0 460.4048 460.2686
  L 460.3346 456.6092"
/>
<path stroke="#337f55" vector-effect="non-scaling-stroke" d="
  M 446.16 468.82
  L 446.24 485.34
  A 1.38 1.26 10.4 0 0 447.17 486.56
  Q 449.89 487.49 452.58 486.72
  A 0.82 0.79 -4.7 0 0 453.16 486.06
  Q 453.52 483.55 450.42 484.01
  A 1.05 1.02 85.2 0 1 449.24 482.98
  L 449.04 469.18
  A 1.22 1.17 -86.6 0 1 450.37 467.95
  Q 453.21 468.34 453.22 466.30
  A 0.91 0.83 16.0 0 0 452.76 465.55
  Q 451.52 464.87 450.22 464.98
  A 1.03 1.01 84.3 0 1 449.12 464.07
  Q 448.91 462.22 449.05 460.89
  Q 449.21 459.24 448.90 458.66
  Q 448.18 457.35 446.43 458.26
  A 0.80 0.75 76.1 0 0 446.02 458.99
  L 446.25 464.26
  A 0.72 0.72 1.1 0 1 445.48 465.00
  Q 442.27 464.74 443.51 467.31
  A 1.14 0.97 -3.8 0 0 444.24 467.85
  L 445.70 468.18
  A 0.67 0.60 -84.1 0 1 446.16 468.82"
/>
<path stroke="#337f55" vector-effect="non-scaling-stroke" d="
  M 345.65 468.23
  A 1.00 0.98 -3.2 0 1 346.83 469.26
  Q 346.28 477.48 346.69 484.60
  Q 346.80 486.35 346.81 486.39
  Q 347.17 487.35 349.08 486.85
  A 0.90 0.90 -7.6 0 0 349.75 485.98
  L 349.75 466.87
  A 1.66 1.65 -86.0 0 0 348.33 465.23
  Q 346.78 465.00 345.09 465.41
  Q 341.45 466.30 338.03 465.10
  A 0.77 0.77 9.9 0 0 337.00 465.82
  L 337.00 486.00
  A 0.75 0.68 -81.3 0 0 337.46 486.69
  Q 338.70 487.12 339.78 486.48
  A 1.00 0.79 77.7 0 0 340.17 485.68
  L 340.02 470.69
  A 1.80 1.69 -5.7 0 1 341.50 469.00
  L 345.65 468.23"
/>
<path stroke="#337f55" vector-effect="non-scaling-stroke" d="
  M 379.1042 467.8518
  A 2.79 2.79 0.0 0 0 376.3191 465.0569
  L 368.4191 465.0431
  A 2.79 2.79 0.0 0 0 365.6243 467.8282
  L 365.5958 484.1682
  A 2.79 2.79 0.0 0 0 368.3809 486.9631
  L 376.2809 486.9769
  A 2.79 2.79 0.0 0 0 379.0757 484.1918
  L 379.1042 467.8518"
/>
<path stroke="#337f55" vector-effect="non-scaling-stroke" d="
  M 392.45 468.81
  L 392.55 472.19
  A 0.69 0.68 -82.6 0 0 393.04 472.84
  Q 395.94 473.68 395.92 471.11
  Q 395.90 468.93 395.92 468.39
  Q 396.05 465.48 393.63 465.15
  Q 393.34 465.11 390.29 465.60
  Q 387.74 466.01 385.24 465.00
  A 0.86 0.85 11.4 0 0 384.06 465.78
  L 383.82 485.94
  A 0.84 0.75 -78.0 0 0 384.25 486.69
  Q 385.52 487.31 386.81 486.73
  A 0.79 0.75 78.4 0 0 387.26 486.00
  L 386.94 469.79
  A 0.70 0.54 85.7 0 1 387.39 469.11
  L 391.93 468.31
  A 0.51 0.44 84.5 0 1 392.45 468.81"
/>
<path stroke="#337f55" vector-effect="non-scaling-stroke" d="
  M 413.29 469.44
  L 418.23 468.25
  A 0.86 0.84 83.2 0 1 419.26 469.08
  L 419.31 486.19
  A 0.68 0.68 -82.0 0 0 419.80 486.84
  Q 422.86 487.73 422.66 485.01
  Q 422.52 483.11 422.52 482.98
  Q 422.66 474.65 422.29 466.99
  Q 422.17 464.67 420.12 465.12
  L 413.42 466.58
  A 1.52 1.15 -21.7 0 1 412.01 466.19
  Q 411.11 465.02 410.02 465.02
  Q 409.87 465.01 407.98 465.46
  Q 406.65 465.77 404.00 466.50
  Q 403.38 466.67 403.09 466.03
  A 1.69 0.64 73.8 0 0 402.52 465.27
  Q 401.08 464.40 400.10 465.54
  A 1.42 1.04 70.5 0 0 399.83 466.43
  Q 400.32 480.18 399.75 483.50
  Q 398.94 488.18 402.73 486.64
  A 0.76 0.73 78.7 0 0 403.18 485.93
  L 403.06 470.32
  A 0.79 0.76 78.5 0 1 403.51 469.61
  Q 406.18 468.46 409.06 468.43
  A 0.51 0.50 90.0 0 1 409.56 468.94
  L 409.56 486.19
  A 0.69 0.68 -81.4 0 0 410.04 486.85
  Q 413.13 487.83 412.90 485.15
  Q 412.75 483.41 412.75 483.33
  Q 412.74 476.70 412.81 470.06
  A 0.64 0.63 83.1 0 1 413.29 469.44"
/>
<path stroke="#358057" vector-effect="non-scaling-stroke" d="
  M 436.46 468.56
  L 436.46 473.25
  A 0.92 0.90 3.4 0 1 435.43 474.14
  Q 430.77 473.59 427.85 474.70
  A 1.66 1.66 0.0 0 0 426.80 476.05
  Q 426.22 480.97 426.76 485.06
  Q 427.09 487.50 429.49 487.00
  Q 434.14 486.05 439.08 487.07
  A 0.56 0.56 -84.1 0 0 439.75 486.52
  L 439.75 467.32
  A 1.99 1.98 5.9 0 0 438.17 465.38
  Q 434.03 464.52 429.00 465.29
  A 2.20 2.20 -87.7 0 0 427.18 466.97
  Q 425.99 472.07 429.79 470.68
  A 0.61 0.53 75.6 0 0 430.12 470.01
  Q 429.96 469.16 430.29 468.48
  A 0.91 0.79 11.4 0 1 431.07 468.04
  L 435.93 468.04
  A 0.53 0.52 -0.0 0 1 436.46 468.56"
/>
<path stroke="#327c56" vector-effect="non-scaling-stroke" d="
  M 460.3654 465.5511
  A 0.52 0.52 0.0 0 0 459.8426 465.0339
  L 457.4427 465.0464
  A 0.52 0.52 0.0 0 0 456.9254 465.5691
  L 457.0346 486.4289
  A 0.52 0.52 0.0 0 0 457.5574 486.9461
  L 459.9573 486.9336
  A 0.52 0.52 0.0 0 0 460.4746 486.4109
  L 460.3654 465.5511"
/>
<path stroke="#337f55" vector-effect="non-scaling-stroke" d="
  M 478.0289 467.7334
  A 2.68 2.68 0.0 0 0 475.3583 465.0440
  L 467.3583 465.0161
  A 2.68 2.68 0.0 0 0 464.6690 467.6867
  L 464.6111 484.2666
  A 2.68 2.68 0.0 0 0 467.2817 486.9560
  L 475.2817 486.9839
  A 2.68 2.68 0.0 0 0 477.9710 484.3133
  L 478.0289 467.7334"
/>
<path stroke="#358057" vector-effect="non-scaling-stroke" d="
  M 492.92 468.56
  Q 492.65 476.61 492.74 484.66
  Q 492.74 484.79 492.63 485.81
  Q 492.45 487.35 494.67 486.97
  A 1.30 1.30 -5.2 0 0 495.75 485.68
  Q 495.72 477.56 495.53 470.24
  Q 495.52 469.76 495.82 467.81
  Q 496.09 466.00 494.66 465.38
  Q 493.72 464.96 491.67 465.26
  Q 489.92 465.52 488.18 465.88
  Q 486.60 466.20 485.34 465.37
  Q 484.84 465.03 484.43 465.01
  Q 482.51 464.88 482.89 466.31
  Q 483.17 467.39 483.16 467.87
  Q 482.84 477.03 483.05 486.19
  A 0.69 0.65 -84.0 0 0 483.55 486.84
  Q 484.50 487.07 485.46 486.83
  A 0.68 0.63 83.5 0 0 485.94 486.18
  L 486.06 470.07
  A 0.70 0.62 84.4 0 1 486.54 469.40
  L 492.44 468.11
  A 0.44 0.40 85.5 0 1 492.92 468.56"
/>
<path stroke="#749fa0" vector-effect="non-scaling-stroke" d="
  M 254.28 472.12
  Q 254.54 471.42 254.40 470.72
  Q 254.27 470.14 253.84 470.54
  L 248.14 475.80
  Q 247.68 476.23 248.30 476.07
  L 253.21 474.81
  A 0.92 0.65 -6.3 0 0 253.88 474.22
  L 254.08 473.06
  Q 254.22 472.27 254.28 472.12"
/>
<path stroke="#749fa0" vector-effect="non-scaling-stroke" d="
  M 232.87 489.46
  L 240.34 481.93
  Q 240.74 481.53 240.27 481.82
  Q 229.78 488.13 217.78 490.67
  Q 217.67 490.69 217.61 490.76
  Q 217.52 490.84 217.51 490.94
  A 0.29 0.19 1.4 0 0 217.83 491.16
  L 229.65 490.69
  Q 231.72 490.61 232.87 489.46"
/>
<path stroke="#308a96" vector-effect="non-scaling-stroke" d="
  M 264.33 482.69
  Q 262.19 481.94 259.95 481.89
  Q 256.98 481.81 255.56 481.87
  Q 252.55 481.98 250.36 483.84
  Q 248.63 485.31 248.32 488.16
  Q 247.79 493.14 248.83 498.08
  A 0.70 0.69 -2.3 0 0 249.43 498.63
  Q 252.49 499.04 258.50 499.00
  Q 264.46 498.96 265.28 493.47
  Q 265.98 488.75 265.52 484.20
  A 1.80 1.78 7.0 0 0 264.33 482.69"
/>
<path stroke="#308a96" vector-effect="non-scaling-stroke" d="
  M 194.50 500.58
  Q 199.56 501.77 204.70 501.10
  Q 207.28 500.75 208.60 499.85
  Q 210.63 498.46 210.69 495.94
  Q 210.80 491.09 210.75 486.42
  Q 210.73 484.44 208.77 484.25
  Q 204.64 483.85 200.50 484.05
  Q 196.48 484.25 194.65 486.99
  Q 193.42 488.83 193.29 492.75
  Q 193.17 496.01 193.56 499.51
  A 1.23 1.23 -86.3 0 0 194.50 500.58"
/>
<path stroke="#337f55" vector-effect="non-scaling-stroke" d="
  M 339.47 499.32
  Q 341.00 498.80 342.64 498.90
  Q 343.79 498.98 344.32 498.71
  Q 345.60 498.05 344.73 496.71
  A 1.11 0.96 -11.3 0 0 343.94 496.26
  Q 337.38 495.62 330.82 496.26
  A 0.63 0.60 -0.7 0 0 330.25 496.81
  Q 330.02 499.78 333.79 498.93
  Q 336.05 498.43 335.99 500.74
  Q 335.70 511.17 335.94 522.00
  Q 335.99 523.89 335.85 526.49
  Q 335.73 528.75 335.75 531.00
  A 0.84 0.77 -78.4 0 0 336.19 531.74
  Q 337.33 532.28 338.58 531.97
  A 0.72 0.67 84.1 0 0 339.08 531.31
  Q 339.56 515.65 339.02 500.00
  A 0.70 0.67 79.9 0 1 339.47 499.32"
/>
<path stroke="#337f55" vector-effect="non-scaling-stroke" d="
  M 391.89 513.16
  A 0.76 0.75 85.3 0 1 392.79 513.94
  Q 392.50 521.28 392.71 527.73
  Q 392.71 527.87 392.52 530.24
  Q 392.30 532.85 395.46 531.85
  A 0.70 0.69 -8.2 0 0 395.95 531.20
  Q 396.18 522.95 395.80 514.70
  Q 395.79 514.64 395.82 512.81
  Q 395.89 509.08 391.66 510.05
  Q 389.20 510.61 386.85 511.22
  A 0.65 0.63 82.9 0 1 386.05 510.58
  L 386.26 497.00
  A 0.81 0.76 -78.9 0 0 385.80 496.27
  Q 384.57 495.74 383.28 496.14
  A 0.73 0.67 83.0 0 0 382.80 496.81
  Q 382.55 512.44 382.97 528.06
  Q 382.98 528.10 382.89 529.95
  Q 382.77 532.78 385.59 531.75
  A 0.76 0.72 81.1 0 0 386.06 531.06
  L 386.17 514.94
  A 0.66 0.64 84.5 0 1 386.67 514.31
  L 391.89 513.16"
/>
<path stroke="#327c56" vector-effect="non-scaling-stroke" d="
  M 439.50 496.66
  A 0.64 0.64 0.0 0 0 438.86 496.02
  L 436.60 496.02
  A 0.64 0.64 0.0 0 0 435.96 496.66
  L 435.96 531.32
  A 0.64 0.64 0.0 0 0 436.60 531.96
  L 438.86 531.96
  A 0.64 0.64 0.0 0 0 439.50 531.32
  L 439.50 496.66"
/>
<path stroke="#288997" vector-effect="non-scaling-stroke" d="
  M 213.34 527.75
  Q 215.74 529.29 218.51 529.21
  Q 222.91 529.07 227.33 529.02
  Q 233.28 528.96 235.98 527.79
  Q 241.80 525.27 242.66 518.76
  Q 242.80 517.71 242.80 510.74
  Q 242.80 506.73 242.60 502.72
  Q 242.48 500.51 241.64 499.51
  Q 240.43 498.09 238.25 498.07
  Q 231.18 498.01 224.12 498.00
  Q 220.21 498.00 218.06 499.00
  Q 214.99 500.44 213.22 503.20
  Q 211.48 505.92 211.27 511.67
  Q 211.04 518.31 211.45 524.55
  Q 211.59 526.63 213.34 527.75"
/>
<path stroke="#337f55" vector-effect="non-scaling-stroke" d="
  M 351.31 522.25
  L 358.91 522.01
  A 1.77 1.62 2.6 0 0 360.59 520.61
  Q 361.22 516.00 360.29 511.30
  A 0.88 0.87 -86.6 0 0 359.71 510.64
  Q 357.69 509.94 355.57 509.88
  Q 352.12 509.78 350.93 509.90
  Q 347.39 510.26 347.63 514.39
  Q 347.75 516.52 347.75 516.62
  Q 347.75 521.16 347.75 525.70
  Q 347.75 525.76 347.64 527.80
  Q 347.42 531.68 350.74 532.07
  Q 352.04 532.23 355.26 532.17
  Q 357.60 532.13 359.74 531.15
  A 1.32 1.22 -89.0 0 0 360.39 530.47
  Q 362.44 525.41 357.80 526.22
  A 0.62 0.51 86.3 0 0 357.37 526.82
  L 357.37 528.31
  A 0.66 0.59 -5.2 0 1 356.82 528.90
  Q 354.08 529.35 351.41 528.69
  A 0.67 0.59 -84.5 0 1 350.96 528.07
  L 350.85 522.81
  A 0.55 0.48 88.3 0 1 351.31 522.25"
/>
<path stroke="#337f55" vector-effect="non-scaling-stroke" d="
  M 369.55 513.20
  L 374.67 513.18
  A 0.85 0.77 -83.9 0 1 375.41 514.19
  Q 374.44 519.06 377.98 517.86
  A 0.94 0.93 -2.0 0 0 378.59 517.22
  Q 378.88 516.20 378.80 515.17
  Q 378.67 513.63 378.55 512.69
  Q 378.22 510.00 375.00 510.00
  Q 372.25 510.00 369.50 509.94
  Q 365.61 509.84 365.60 513.75
  Q 365.57 522.01 365.99 530.14
  A 1.72 1.72 2.2 0 0 367.48 531.75
  Q 371.24 532.24 374.99 531.91
  Q 377.51 531.69 378.14 530.15
  Q 378.79 528.54 378.20 525.92
  A 1.24 1.24 88.0 0 0 377.16 524.95
  Q 374.27 524.54 375.50 527.51
  A 0.98 0.87 77.3 0 1 374.75 528.86
  L 369.69 528.89
  A 0.59 0.53 89.5 0 1 369.16 528.31
  L 369.05 513.81
  A 0.60 0.50 89.4 0 1 369.55 513.20"
/>
<path stroke="#337f55" vector-effect="non-scaling-stroke" d="
  M 404.80 514.20
  L 410.30 513.16
  A 0.43 0.41 85.6 0 1 410.78 513.59
  L 410.55 530.69
  A 1.14 1.03 -70.9 0 0 410.91 531.54
  Q 412.13 532.63 413.54 531.73
  A 0.94 0.83 74.5 0 0 413.93 530.93
  L 413.55 512.21
  Q 413.48 508.88 410.33 510.06
  Q 406.42 511.52 402.21 510.07
  A 0.91 0.91 9.6 0 0 401.00 510.93
  Q 401.00 519.35 401.00 528.15
  Q 401.00 528.22 400.91 529.85
  Q 400.74 533.08 403.74 531.67
  A 0.78 0.75 75.8 0 0 404.16 530.93
  Q 403.67 522.87 404.27 514.82
  A 0.69 0.66 86.8 0 1 404.80 514.20"
/>
<path stroke="#337f55" vector-effect="non-scaling-stroke" d="
  M 432.0145 512.7116
  A 2.67 2.67 0.0 0 0 429.3491 510.0370
  L 421.3692 510.0231
  A 2.67 2.67 0.0 0 0 418.6945 512.6884
  L 418.6655 529.2884
  A 2.67 2.67 0.0 0 0 421.3309 531.9630
  L 429.3108 531.9769
  A 2.67 2.67 0.0 0 0 431.9855 529.3116
  L 432.0145 512.7116"
/>
<path stroke="#327c56" vector-effect="non-scaling-stroke" d="
  M 458.1422 513.0162
  A 3.03 3.03 0.0 0 0 455.1016 509.9968
  L 447.5217 510.0233
  A 3.03 3.03 0.0 0 0 444.5023 513.0639
  L 444.5578 528.9838
  A 3.03 3.03 0.0 0 0 447.5984 532.0032
  L 455.1783 531.9767
  A 3.03 3.03 0.0 0 0 458.1977 528.9361
  L 458.1422 513.0162"
/>
<path stroke="#358057" vector-effect="non-scaling-stroke" d="
  M 472.57 532.54
  L 472.63 536.23
  A 0.87 0.76 -0.3 0 1 471.76 537.00
  L 468.00 537.00
  A 2.66 0.57 47.6 0 1 466.25 535.75
  Q 465.04 534.53 463.52 535.10
  A 0.80 0.77 81.2 0 0 463.02 535.81
  Q 462.93 537.64 464.00 539.06
  A 1.42 1.18 -8.4 0 0 464.80 539.55
  Q 469.84 540.70 474.15 539.63
  A 2.10 2.10 83.2 0 0 475.75 537.59
  L 475.75 510.86
  A 0.92 0.92 -10.2 0 0 474.51 510.00
  Q 471.54 511.10 468.47 510.37
  Q 465.69 509.70 464.10 511.31
  Q 463.02 512.41 462.87 515.02
  Q 462.63 519.45 462.72 523.89
  Q 462.72 523.98 462.59 526.61
  Q 462.40 530.67 466.00 531.75
  Q 467.28 532.13 471.93 532.07
  A 0.63 0.47 -0.6 0 1 472.57 532.54"
/>
<path stroke="#358057" vector-effect="non-scaling-stroke" d="
  M 485.67 526.70
  Q 483.66 519.60 482.43 512.32
  Q 482.18 510.85 481.58 510.43
  Q 480.75 509.83 479.23 510.09
  A 0.49 0.48 78.1 0 0 478.85 510.68
  Q 480.93 519.51 483.07 528.04
  Q 483.87 531.24 483.53 533.53
  Q 483.14 536.16 482.06 538.96
  A 0.64 0.63 -72.2 0 0 482.49 539.80
  Q 485.02 540.46 485.40 538.98
  Q 489.01 525.01 492.38 510.99
  A 0.69 0.65 -69.2 0 0 492.07 510.23
  Q 490.75 509.55 489.62 510.42
  A 1.46 1.08 83.7 0 0 489.15 511.23
  L 485.92 526.69
  Q 485.81 527.19 485.67 526.70"
/>
<path stroke="#327c56" vector-effect="non-scaling-stroke" d="
  M 249.4693 519.8884
  A 0.65 0.56 133.9 0 0 250.3235 519.8083
  A 0.65 0.56 133.9 0 0 250.3707 518.9516
  A 0.65 0.56 133.9 0 0 249.5165 519.0317
  A 0.65 0.56 133.9 0 0 249.4693 519.8884"
/>
<path stroke="#0d8394" vector-effect="non-scaling-stroke" d="
  M 258.72 528.50
  Q 257.51 527.57 256.31 527.32
  Q 256.29 527.32 253.70 527.13
  Q 250.19 526.88 245.50 527.25
  Q 236.82 527.94 236.78 536.50
  Q 236.75 541.37 236.75 546.30
  Q 236.75 549.15 239.56 549.64
  Q 245.42 550.66 251.80 549.69
  Q 254.74 549.24 256.38 547.98
  Q 258.55 546.30 259.23 543.70
  Q 259.58 542.34 259.72 536.79
  Q 259.81 533.43 259.42 529.75
  A 1.84 1.80 16.3 0 0 258.72 528.50"
/>
<path stroke="#1f8080" vector-effect="non-scaling-stroke" d="
  M 270.94 252.16
  Q 275.14 246.64 280.99 243.37
  Q 281.52 243.07 293.06 238.21
  Q 304.27 233.48 315.40 228.61
  Q 319.25 226.93 322.67 222.80
  Q 323.22 222.14 322.39 222.35
  Q 286.38 231.49 255.47 251.49
  A 0.37 0.37 -42.2 0 0 255.44 252.09
  Q 257.78 253.95 260.39 254.99
  Q 266.82 257.57 270.94 252.16"
/>
<path stroke="#337f50" vector-effect="non-scaling-stroke" d="
  M 375.7183 468.5869
  A 0.59 0.59 0.0 0 0 375.1242 468.0010
  L 369.6244 468.0394
  A 0.59 0.59 0.0 0 0 369.0385 468.6335
  L 369.1417 483.4131
  A 0.59 0.59 0.0 0 0 369.7358 483.9990
  L 375.2356 483.9606
  A 0.59 0.59 0.0 0 0 375.8215 483.3665
  L 375.7183 468.5869"
/>
<path stroke="#358152" vector-effect="non-scaling-stroke" d="
  M 436.4529 477.2388
  A 0.26 0.26 0.0 0 0 436.1889 476.9830
  L 430.1496 477.0778
  A 0.26 0.26 0.0 0 0 429.8938 477.3419
  L 429.9871 483.2812
  A 0.26 0.26 0.0 0 0 430.2511 483.5370
  L 436.2904 483.4422
  A 0.26 0.26 0.0 0 0 436.5462 483.1781
  L 436.4529 477.2388"
/>
<path stroke="#337f50" vector-effect="non-scaling-stroke" d="
  M 474.7440 468.5385
  A 0.54 0.54 0.0 0 0 474.2021 468.0004
  L 468.6822 468.0197
  A 0.54 0.54 0.0 0 0 468.1440 468.5616
  L 468.1960 483.4415
  A 0.54 0.54 0.0 0 0 468.7379 483.9796
  L 474.2578 483.9603
  A 0.54 0.54 0.0 0 0 474.7960 483.4184
  L 474.7440 468.5385"
/>
<path stroke="#337f50" vector-effect="non-scaling-stroke" d="
  M 357.3415 513.5589
  A 0.53 0.53 0.0 0 0 356.8096 513.0307
  L 351.4896 513.0493
  A 0.53 0.53 0.0 0 0 350.9615 513.5812
  L 350.9785 518.4611
  A 0.53 0.53 0.0 0 0 351.5104 518.9893
  L 356.8304 518.9707
  A 0.53 0.53 0.0 0 0 357.3585 518.4388
  L 357.3415 513.5589"
/>
<path stroke="#337f50" vector-effect="non-scaling-stroke" d="
  M 428.6663 513.3074
  A 0.30 0.30 0.0 0 0 428.3642 513.0095
  L 422.4444 513.0509
  A 0.30 0.30 0.0 0 0 422.1465 513.3529
  L 422.2537 528.7126
  A 0.30 0.30 0.0 0 0 422.5558 529.0105
  L 428.4756 528.9691
  A 0.30 0.30 0.0 0 0 428.7735 528.6671
  L 428.6663 513.3074"
/>
<path stroke="#317c51" vector-effect="non-scaling-stroke" d="
  M 454.5907 513.4833
  A 0.48 0.48 0.0 0 0 454.1082 513.0059
  L 448.6683 513.0344
  A 0.48 0.48 0.0 0 0 448.1908 513.5169
  L 448.2693 528.5167
  A 0.48 0.48 0.0 0 0 448.7518 528.9941
  L 454.1917 528.9656
  A 0.48 0.48 0.0 0 0 454.6692 528.4831
  L 454.5907 513.4833"
/>
<path stroke="#358152" vector-effect="non-scaling-stroke" d="
  M 472.5269 514.4888
  A 1.24 1.24 0.0 0 0 471.2826 513.2531
  L 467.3026 513.2670
  A 1.24 1.24 0.0 0 0 466.0669 514.5113
  L 466.1131 527.7312
  A 1.24 1.24 0.0 0 0 467.3574 528.9669
  L 471.3374 528.9530
  A 1.24 1.24 0.0 0 0 472.5731 527.7087
  L 472.5269 514.4888"
/>
</g>
<path fill="#ffffff" d="
  M 0.00 0.00
  L 696.06 0.00
  L 695.85 697.00
  L 0.00 697.00
  L 0.00 0.00
  Z
  M 234.51 297.66
  Q 244.03 292.07 254.43 286.42
  Q 258.16 284.39 262.20 283.27
  A 1.08 1.08 69.5 0 1 263.47 283.85
  Q 266.85 291.11 274.21 288.87
  Q 281.69 286.60 288.77 283.24
  Q 291.68 281.86 290.94 285.00
  Q 279.94 331.60 269.81 379.31
  Q 269.40 381.23 268.22 382.81
  Q 265.34 386.68 263.06 391.81
  Q 259.33 400.19 244.59 427.93
  Q 244.06 428.93 243.71 429.40
  Q 241.99 431.66 242.26 426.99
  Q 243.58 404.07 246.00 381.25
  Q 246.90 372.80 244.75 365.90
  Q 243.79 362.82 243.37 361.99
  Q 242.40 360.07 240.46 358.86
  Q 239.16 358.06 235.81 355.19
  Q 230.89 350.96 223.48 352.12
  Q 214.42 353.53 206.35 357.53
  Q 200.88 360.24 195.49 365.13
  Q 190.56 369.61 186.21 374.69
  Q 183.57 377.77 183.00 379.75
  Q 172.10 417.54 178.14 456.48
  Q 180.19 469.75 188.97 480.40
  A 0.78 0.78 48.4 0 1 188.91 481.46
  Q 184.18 486.00 179.68 490.93
  Q 176.61 494.28 175.59 496.66
  Q 174.17 499.97 174.21 503.75
  Q 174.25 507.13 174.43 510.49
  Q 174.71 515.57 178.23 518.17
  Q 180.21 519.64 184.64 520.21
  Q 188.03 520.65 191.43 521.01
  A 0.55 0.54 3.4 0 1 191.93 521.56
  Q 191.88 533.74 192.25 536.50
  Q 193.43 545.21 201.75 547.75
  Q 204.93 548.72 216.50 548.75
  A 0.55 0.55 -2.9 0 1 217.05 549.24
  Q 217.30 551.99 217.41 554.74
  Q 217.60 559.04 218.04 560.69
  Q 220.34 569.17 230.25 569.39
  Q 231.32 569.41 236.75 569.25
  Q 245.14 569.00 250.50 564.25
  Q 255.98 559.41 260.80 553.93
  Q 263.45 550.92 264.44 548.51
  Q 265.71 545.43 265.86 542.00
  Q 265.96 539.50 266.00 532.75
  Q 266.01 530.38 267.97 530.91
  A 0.67 0.61 -82.9 0 1 268.43 531.56
  Q 268.34 546.76 272.09 561.48
  Q 272.82 564.34 274.41 566.83
  Q 276.53 570.13 280.49 570.35
  Q 288.45 570.78 296.40 570.36
  Q 296.45 570.36 300.11 570.36
  Q 302.63 570.35 303.94 569.44
  Q 307.95 566.62 314.77 559.01
  Q 317.89 555.53 317.47 550.32
  Q 317.31 548.45 318.95 549.36
  Q 324.89 552.65 331.28 549.95
  A 1.41 1.35 -46.2 0 1 332.22 549.91
  Q 340.38 552.63 349.35 550.70
  Q 350.85 550.37 352.36 550.70
  Q 359.30 552.20 366.28 551.07
  Q 367.83 550.82 369.72 551.09
  Q 371.48 551.34 373.24 551.21
  Q 377.42 550.90 378.41 550.94
  Q 384.58 551.22 390.75 551.20
  Q 390.89 551.20 394.09 550.82
  Q 395.68 550.63 397.50 551.00
  Q 399.80 551.47 402.54 551.16
  Q 405.30 550.85 407.46 551.13
  Q 413.17 551.88 418.89 551.27
  Q 420.86 551.06 423.12 551.18
  Q 425.25 551.30 427.37 551.14
  Q 431.00 550.86 433.62 551.14
  Q 438.04 551.61 442.26 551.57
  A 2.51 2.51 -14.9 0 1 444.49 552.86
  Q 447.49 558.25 453.00 559.25
  Q 458.48 560.25 466.01 558.61
  Q 466.49 558.50 466.97 558.64
  Q 475.07 560.98 480.62 554.85
  Q 483.94 551.19 487.53 547.79
  Q 490.17 545.29 491.00 542.50
  Q 493.86 532.84 497.08 518.63
  Q 498.60 511.93 498.44 510.32
  Q 497.95 505.27 491.57 503.56
  A 0.94 0.94 29.2 0 1 491.13 502.01
  Q 494.91 498.03 498.50 494.50
  Q 501.94 491.11 501.98 486.25
  Q 502.05 477.28 501.94 468.31
  Q 501.87 462.67 497.40 460.02
  Q 495.26 458.75 491.33 458.75
  Q 487.16 458.75 483.00 458.75
  Q 482.26 458.75 480.54 459.04
  Q 479.29 459.25 478.04 459.09
  Q 475.03 458.70 474.93 458.70
  Q 471.03 458.55 467.41 458.28
  A 0.95 0.94 86.8 0 1 466.55 457.50
  Q 465.42 450.92 459.60 449.74
  Q 456.12 449.04 453.00 450.75
  Q 450.97 451.86 448.77 451.80
  Q 445.21 451.70 444.73 451.81
  Q 440.45 452.82 437.56 456.61
  Q 435.98 458.67 433.39 458.49
  Q 428.77 458.17 424.23 459.37
  A 1.76 1.56 44.5 0 1 423.27 459.32
  Q 419.68 458.05 415.25 459.00
  Q 413.67 459.34 411.67 458.98
  Q 409.43 458.58 408.15 458.61
  Q 399.66 458.80 393.50 458.50
  Q 387.73 458.22 382.69 458.50
  Q 379.50 458.69 376.32 458.32
  Q 373.14 457.95 369.93 457.83
  A 0.39 0.37 -79.8 0 1 369.60 457.33
  Q 371.17 452.34 368.78 448.24
  Q 367.27 445.66 364.10 444.72
  Q 359.30 443.31 354.62 444.85
  Q 351.94 445.73 348.71 448.82
  Q 343.93 453.39 339.20 457.70
  Q 338.68 458.17 338.72 457.47
  Q 338.88 454.01 338.34 451.33
  Q 337.22 445.66 331.74 444.36
  A 0.79 0.73 2.8 0 1 331.15 443.76
  Q 330.52 439.95 334.22 440.17
  Q 335.66 440.25 335.80 440.25
  Q 351.19 440.28 368.25 440.25
  A 2.73 2.71 -18.0 0 1 370.48 441.38
  Q 373.93 446.13 378.58 448.94
  Q 383.15 451.69 388.84 452.31
  Q 399.55 453.48 407.94 446.19
  Q 418.43 437.06 421.19 433.19
  Q 423.71 429.63 425.69 426.04
  A 1.63 1.62 19.9 0 1 427.43 425.23
  Q 434.27 426.62 440.56 424.76
  Q 445.58 423.27 451.24 418.46
  Q 455.22 415.08 460.44 409.94
  Q 473.56 397.01 467.55 379.39
  A 0.63 0.62 -12.8 0 1 468.07 378.57
  Q 480.65 377.21 489.12 368.87
  Q 496.11 362.00 498.06 359.56
  Q 507.54 347.77 503.38 334.58
  Q 501.37 328.25 496.96 323.97
  Q 492.21 319.36 485.68 317.79
  Q 479.83 316.38 473.83 317.90
  Q 467.93 319.39 462.88 323.23
  A 1.08 1.07 -33.8 0 1 461.30 322.92
  Q 457.72 316.72 451.33 319.59
  Q 451.30 319.61 449.70 320.47
  Q 445.47 322.76 441.50 320.25
  Q 435.78 316.64 434.00 316.00
  Q 430.23 314.65 427.56 316.56
  Q 425.49 318.04 417.54 325.84
  A 1.46 1.42 18.4 0 1 416.69 326.25
  Q 409.37 327.09 402.00 326.68
  Q 396.56 326.38 393.06 328.56
  Q 389.82 330.58 384.67 335.93
  Q 378.41 342.41 371.13 349.76
  A 3.59 3.57 -69.5 0 1 368.87 350.80
  Q 361.63 351.35 353.73 350.75
  A 0.50 0.49 10.4 0 1 353.29 350.12
  Q 368.06 297.33 387.02 245.76
  Q 388.32 242.22 388.38 242.12
  Q 389.39 240.50 391.69 239.69
  Q 415.20 231.35 438.83 223.36
  Q 479.33 209.65 521.46 206.29
  A 4.89 4.85 22.9 0 0 524.17 205.20
  Q 530.71 199.82 536.11 193.33
  A 1.73 1.63 -22.9 0 0 536.50 192.45
  Q 537.00 188.24 536.71 184.04
  Q 536.49 180.81 534.89 179.06
  Q 532.84 176.80 529.75 176.50
  Q 516.90 175.26 504.45 174.77
  Q 502.40 174.69 503.87 173.25
  Q 509.69 167.56 515.17 161.67
  Q 518.74 157.83 517.75 153.59
  Q 517.04 150.52 513.27 147.50
  Q 510.01 144.89 506.28 142.94
  Q 503.51 141.50 499.75 141.50
  Q 472.69 141.50 445.64 141.50
  Q 439.51 141.50 433.96 142.55
  Q 397.22 149.50 361.56 163.56
  Q 296.34 189.29 237.44 224.94
  Q 199.02 248.19 174.50 264.20
  Q 167.42 268.82 162.98 272.95
  Q 158.47 277.13 152.69 283.19
  Q 150.82 285.15 149.71 286.61
  Q 148.50 288.21 148.39 290.75
  Q 148.16 296.20 148.21 301.65
  Q 148.25 307.23 148.28 307.34
  Q 148.94 310.48 152.69 311.83
  A 0.78 0.76 8.1 0 1 153.21 312.51
  Q 153.49 316.25 155.06 319.11
  Q 157.84 324.17 161.20 328.86
  Q 164.70 333.76 169.69 331.94
  Q 173.73 330.46 186.29 323.07
  Q 189.11 321.41 191.87 320.61
  Q 192.73 320.36 192.50 321.23
  Q 189.60 332.40 195.80 341.94
  Q 198.00 345.32 202.44 346.56
  Q 211.01 348.96 218.99 347.29
  Q 223.42 346.36 227.72 343.17
  Q 235.93 337.07 241.81 328.64
  Q 243.70 325.92 244.46 323.41
  Q 245.42 320.26 245.25 317.50
  Q 244.97 312.78 242.89 307.57
  Q 241.57 304.24 239.81 302.48
  Q 237.68 300.35 234.64 299.21
  Q 232.94 298.57 234.51 297.66
  Z"
/>
<path fill="#030101" fill-opacity="0.012" d="
  M 696.06 0.00
  L 697.00 0.00
  L 697.00 697.00
  L 695.85 697.00
  L 696.06 0.00
  Z"
/>
<path fill="#044b4a" d="
  M 234.51 297.66
  Q 232.94 298.57 234.64 299.21
  Q 237.68 300.35 239.81 302.48
  Q 241.57 304.24 242.89 307.57
  Q 244.97 312.78 245.25 317.50
  Q 245.42 320.26 244.46 323.41
  Q 243.70 325.92 241.81 328.64
  Q 235.93 337.07 227.72 343.17
  Q 223.42 346.36 218.99 347.29
  Q 211.01 348.96 202.44 346.56
  Q 198.00 345.32 195.80 341.94
  Q 189.60 332.40 192.50 321.23
  Q 192.73 320.36 191.87 320.61
  Q 189.11 321.41 186.29 323.07
  Q 173.73 330.46 169.69 331.94
  Q 164.70 333.76 161.20 328.86
  Q 157.84 324.17 155.06 319.11
  Q 153.49 316.25 153.21 312.51
  A 0.78 0.76 8.1 0 0 152.69 311.83
  Q 148.94 310.48 148.28 307.34
  Q 148.25 307.23 148.21 301.65
  Q 148.16 296.20 148.39 290.75
  Q 148.50 288.21 149.71 286.61
  Q 150.82 285.15 152.69 283.19
  Q 158.47 277.13 162.98 272.95
  Q 167.42 268.82 174.50 264.20
  Q 199.02 248.19 237.44 224.94
  Q 296.34 189.29 361.56 163.56
  Q 397.22 149.50 433.96 142.55
  Q 439.51 141.50 445.64 141.50
  Q 472.69 141.50 499.75 141.50
  Q 503.51 141.50 506.28 142.94
  Q 510.01 144.89 513.27 147.50
  Q 517.04 150.52 517.75 153.59
  Q 518.74 157.83 515.17 161.67
  Q 509.69 167.56 503.87 173.25
  Q 502.40 174.69 504.45 174.77
  Q 516.90 175.26 529.75 176.50
  Q 532.84 176.80 534.89 179.06
  Q 536.49 180.81 536.71 184.04
  Q 537.00 188.24 536.50 192.45
  A 1.73 1.63 -22.9 0 1 536.11 193.33
  Q 530.71 199.82 524.17 205.20
  A 4.89 4.85 22.9 0 1 521.46 206.29
  Q 479.33 209.65 438.83 223.36
  Q 415.20 231.35 391.69 239.69
  Q 389.39 240.50 388.38 242.12
  Q 388.32 242.22 387.02 245.76
  Q 368.06 297.33 353.29 350.12
  A 0.50 0.49 10.4 0 0 353.73 350.75
  Q 361.63 351.35 368.87 350.80
  A 3.59 3.57 -69.5 0 0 371.13 349.76
  Q 378.41 342.41 384.67 335.93
  Q 389.82 330.58 393.06 328.56
  Q 396.56 326.38 402.00 326.68
  Q 409.37 327.09 416.69 326.25
  A 1.46 1.42 18.4 0 0 417.54 325.84
  Q 425.49 318.04 427.56 316.56
  Q 430.23 314.65 434.00 316.00
  Q 435.78 316.64 441.50 320.25
  Q 445.47 322.76 449.70 320.47
  Q 451.30 319.61 451.33 319.59
  Q 457.72 316.72 461.30 322.92
  A 1.08 1.07 -33.8 0 0 462.88 323.23
  Q 467.93 319.39 473.83 317.90
  Q 479.83 316.38 485.68 317.79
  Q 492.21 319.36 496.96 323.97
  Q 501.37 328.25 503.38 334.58
  Q 507.54 347.77 498.06 359.56
  Q 496.11 362.00 489.12 368.87
  Q 480.65 377.21 468.07 378.57
  A 0.63 0.62 -12.8 0 0 467.55 379.39
  Q 473.56 397.01 460.44 409.94
  Q 455.22 415.08 451.24 418.46
  Q 445.58 423.27 440.56 424.76
  Q 434.27 426.62 427.43 425.23
  A 1.63 1.62 19.9 0 0 425.69 426.04
  Q 423.71 429.63 421.19 433.19
  Q 418.43 437.06 407.94 446.19
  Q 399.55 453.48 388.84 452.31
  Q 383.15 451.69 378.58 448.94
  Q 373.93 446.13 370.48 441.38
  A 2.73 2.71 -18.0 0 0 368.25 440.25
  Q 351.19 440.28 335.80 440.25
  Q 335.66 440.25 334.22 440.17
  Q 330.52 439.95 331.15 443.76
  A 0.79 0.73 2.8 0 0 331.74 444.36
  Q 337.22 445.66 338.34 451.33
  Q 338.88 454.01 338.72 457.47
  Q 338.68 458.17 339.20 457.70
  Q 343.93 453.39 348.71 448.82
  Q 351.94 445.73 354.62 444.85
  Q 359.30 443.31 364.10 444.72
  Q 367.27 445.66 368.78 448.24
  Q 371.17 452.34 369.60 457.33
  A 0.39 0.37 -79.8 0 0 369.93 457.83
  Q 373.14 457.95 376.32 458.32
  Q 379.50 458.69 382.69 458.50
  Q 387.73 458.22 393.50 458.50
  Q 399.66 458.80 408.15 458.61
  Q 409.43 458.58 411.67 458.98
  Q 413.67 459.34 415.25 459.00
  Q 419.68 458.05 423.27 459.32
  A 1.76 1.56 44.5 0 0 424.23 459.37
  Q 428.77 458.17 433.39 458.49
  Q 435.98 458.67 437.56 456.61
  Q 440.45 452.82 444.73 451.81
  Q 445.21 451.70 448.77 451.80
  Q 450.97 451.86 453.00 450.75
  Q 456.12 449.04 459.60 449.74
  Q 465.42 450.92 466.55 457.50
  A 0.95 0.94 86.8 0 0 467.41 458.28
  Q 471.03 458.55 474.93 458.70
  Q 475.03 458.70 478.04 459.09
  Q 479.29 459.25 480.54 459.04
  Q 482.26 458.75 483.00 458.75
  Q 487.16 458.75 491.33 458.75
  Q 495.26 458.75 497.40 460.02
  Q 501.87 462.67 501.94 468.31
  Q 502.05 477.28 501.98 486.25
  Q 501.94 491.11 498.50 494.50
  Q 494.91 498.03 491.13 502.01
  A 0.94 0.94 29.2 0 0 491.57 503.56
  Q 497.95 505.27 498.44 510.32
  Q 498.60 511.93 497.08 518.63
  Q 493.86 532.84 491.00 542.50
  Q 490.17 545.29 487.53 547.79
  Q 483.94 551.19 480.62 554.85
  Q 475.07 560.98 466.97 558.64
  Q 466.49 558.50 466.01 558.61
  Q 458.48 560.25 453.00 559.25
  Q 447.49 558.25 444.49 552.86
  A 2.51 2.51 -14.9 0 0 442.26 551.57
  Q 438.04 551.61 433.62 551.14
  Q 431.00 550.86 427.37 551.14
  Q 425.25 551.30 423.12 551.18
  Q 420.86 551.06 418.89 551.27
  Q 413.17 551.88 407.46 551.13
  Q 405.30 550.85 402.54 551.16
  Q 399.80 551.47 397.50 551.00
  Q 395.68 550.63 394.09 550.82
  Q 390.89 551.20 390.75 551.20
  Q 384.58 551.22 378.41 550.94
  Q 377.42 550.90 373.24 551.21
  Q 371.48 551.34 369.72 551.09
  Q 367.83 550.82 366.28 551.07
  Q 359.30 552.20 352.36 550.70
  Q 350.85 550.37 349.35 550.70
  Q 340.38 552.63 332.22 549.91
  A 1.41 1.35 -46.2 0 0 331.28 549.95
  Q 324.89 552.65 318.95 549.36
  Q 317.31 548.45 317.47 550.32
  Q 317.89 555.53 314.77 559.01
  Q 307.95 566.62 303.94 569.44
  Q 302.63 570.35 300.11 570.36
  Q 296.45 570.36 296.40 570.36
  Q 288.45 570.78 280.49 570.35
  Q 276.53 570.13 274.41 566.83
  Q 272.82 564.34 272.09 561.48
  Q 268.34 546.76 268.43 531.56
  A 0.67 0.61 -82.9 0 0 267.97 530.91
  Q 266.01 530.38 266.00 532.75
  Q 265.96 539.50 265.86 542.00
  Q 265.71 545.43 264.44 548.51
  Q 263.45 550.92 260.80 553.93
  Q 255.98 559.41 250.50 564.25
  Q 245.14 569.00 236.75 569.25
  Q 231.32 569.41 230.25 569.39
  Q 220.34 569.17 218.04 560.69
  Q 217.60 559.04 217.41 554.74
  Q 217.30 551.99 217.05 549.24
  A 0.55 0.55 -2.9 0 0 216.50 548.75
  Q 204.93 548.72 201.75 547.75
  Q 193.43 545.21 192.25 536.50
  Q 191.88 533.74 191.93 521.56
  A 0.55 0.54 3.4 0 0 191.43 521.01
  Q 188.03 520.65 184.64 520.21
  Q 180.21 519.64 178.23 518.17
  Q 174.71 515.57 174.43 510.49
  Q 174.25 507.13 174.21 503.75
  Q 174.17 499.97 175.59 496.66
  Q 176.61 494.28 179.68 490.93
  Q 184.18 486.00 188.91 481.46
  A 0.78 0.78 48.4 0 0 188.97 480.40
  Q 180.19 469.75 178.14 456.48
  Q 172.10 417.54 183.00 379.75
  Q 183.57 377.77 186.21 374.69
  Q 190.56 369.61 195.49 365.13
  Q 200.88 360.24 206.35 357.53
  Q 214.42 353.53 223.48 352.12
  Q 230.89 350.96 235.81 355.19
  Q 239.16 358.06 240.46 358.86
  Q 242.40 360.07 243.37 361.99
  Q 243.79 362.82 244.75 365.90
  Q 246.90 372.80 246.00 381.25
  Q 243.58 404.07 242.26 426.99
  Q 241.99 431.66 243.71 429.40
  Q 244.06 428.93 244.59 427.93
  Q 259.33 400.19 263.06 391.81
  Q 265.34 386.68 268.22 382.81
  Q 269.40 381.23 269.81 379.31
  Q 279.94 331.60 290.94 285.00
  Q 291.68 281.86 288.77 283.24
  Q 281.69 286.60 274.21 288.87
  Q 266.85 291.11 263.47 283.85
  A 1.08 1.08 69.5 0 0 262.20 283.27
  Q 258.16 284.39 254.43 286.42
  Q 244.03 292.07 234.51 297.66
  Z
  M 287.91 373.64
  Q 284.96 376.46 283.31 379.81
  Q 270.12 406.66 256.14 433.11
  Q 251.95 441.03 244.18 445.42
  Q 241.88 446.72 239.76 446.04
  Q 237.99 445.47 236.86 443.30
  Q 235.75 441.15 235.75 439.25
  Q 235.75 435.50 235.94 431.76
  Q 237.32 404.74 239.95 377.82
  Q 240.33 373.86 240.11 371.66
  Q 239.80 368.58 238.79 365.61
  Q 238.38 364.38 237.44 363.86
  A 0.37 0.37 21.2 0 0 236.89 364.10
  Q 233.61 378.87 231.86 393.23
  Q 229.76 410.46 228.08 427.73
  Q 227.97 428.84 227.60 428.19
  Q 227.50 428.02 227.49 427.79
  Q 227.11 422.03 227.46 416.25
  Q 229.04 390.70 232.50 365.35
  Q 232.94 362.12 232.89 361.65
  Q 232.66 359.20 229.75 358.77
  Q 227.26 358.40 224.76 358.80
  Q 216.73 360.08 209.61 363.83
  Q 206.08 365.68 204.83 366.64
  Q 202.28 368.57 201.50 371.25
  Q 191.18 406.64 197.59 445.29
  Q 198.70 451.98 201.50 456.75
  Q 208.58 468.83 221.04 470.47
  Q 229.84 471.62 240.41 466.92
  Q 253.01 461.32 261.44 450.69
  Q 270.88 438.77 279.71 421.25
  Q 271.57 468.64 269.63 514.99
  Q 269.51 517.94 271.16 515.49
  Q 279.65 502.82 282.55 487.86
  Q 285.08 474.79 287.93 461.79
  Q 289.31 455.53 291.51 449.49
  Q 292.49 446.77 292.24 449.65
  Q 291.11 462.39 289.82 475.26
  Q 288.68 486.61 288.25 498.01
  Q 287.70 512.41 287.72 517.99
  Q 287.79 532.19 290.49 546.20
  Q 292.03 554.17 300.25 554.17
  Q 305.10 554.17 310.48 552.91
  A 1.00 0.99 81.8 0 0 311.24 551.88
  Q 309.77 525.71 313.87 499.73
  Q 320.16 459.92 328.74 420.90
  A 0.83 0.82 6.0 0 1 329.55 420.25
  L 385.57 420.25
  A 1.32 1.31 77.0 0 1 386.75 420.99
  Q 391.50 430.66 400.33 432.38
  Q 406.27 433.54 411.74 430.83
  Q 417.56 427.94 420.00 421.74
  Q 421.77 417.25 421.08 412.58
  Q 420.34 407.56 417.12 403.84
  Q 413.39 399.52 407.95 398.17
  Q 402.42 396.79 396.61 399.19
  Q 391.09 401.47 387.88 407.23
  A 1.48 1.48 14.3 0 1 386.58 408.00
  L 332.68 408.00
  A 0.69 0.68 6.3 0 1 332.00 407.17
  L 334.83 395.00
  A 0.66 0.64 6.0 0 1 335.47 394.50
  L 428.10 394.50
  A 1.18 1.18 78.1 0 1 429.18 395.21
  Q 434.02 406.41 445.62 406.50
  Q 449.76 406.54 453.17 404.95
  Q 456.90 403.20 459.42 400.08
  Q 462.78 395.90 463.10 389.71
  Q 463.60 380.28 456.52 375.14
  Q 450.11 370.48 442.57 371.71
  Q 434.25 373.06 429.56 381.68
  A 1.11 1.09 14.0 0 1 428.59 382.25
  L 338.57 382.25
  A 0.51 0.51 -82.2 0 1 338.08 381.60
  L 341.04 370.67
  A 1.25 1.24 -82.4 0 1 342.24 369.75
  L 378.50 369.75
  A 3.31 3.26 22.0 0 0 380.84 368.78
  L 402.92 346.71
  Q 404.13 345.49 405.88 345.49
  L 462.51 345.49
  A 1.77 1.77 -11.1 0 1 464.15 346.59
  Q 467.10 353.93 473.09 356.92
  Q 478.96 359.85 485.66 358.08
  Q 491.23 356.61 494.77 351.97
  Q 497.75 348.06 498.44 343.41
  Q 499.19 338.40 496.94 333.81
  Q 492.42 324.60 482.92 323.68
  Q 477.37 323.14 472.91 325.53
  Q 468.46 327.91 465.14 332.80
  A 1.61 1.59 -72.6 0 1 463.82 333.50
  L 399.48 333.50
  A 2.06 2.00 21.6 0 0 398.03 334.10
  L 375.65 356.74
  A 2.64 2.57 -68.3 0 1 373.90 357.52
  Q 359.83 358.05 345.18 357.34
  A 0.41 0.40 -80.6 0 1 344.82 356.83
  Q 360.74 298.24 381.76 241.27
  Q 381.78 241.21 383.05 237.57
  Q 384.99 231.97 387.81 228.31
  Q 390.88 224.34 396.28 222.66
  Q 399.10 221.77 399.19 221.74
  Q 429.69 211.02 438.75 207.75
  Q 484.62 191.18 533.26 187.00
  A 0.38 0.37 -16.6 0 0 533.56 186.45
  Q 532.04 183.60 529.14 182.93
  Q 529.00 182.90 523.84 182.59
  Q 498.74 181.06 492.50 181.00
  Q 463.76 180.72 436.85 190.70
  Q 431.83 192.57 426.75 194.26
  Q 426.67 194.29 423.42 195.48
  Q 419.44 196.96 415.19 197.03
  Q 413.24 197.06 411.91 196.45
  Q 410.17 195.65 409.31 194.19
  Q 407.47 191.03 406.60 187.87
  A 0.82 0.82 72.9 0 1 407.12 186.88
  Q 441.43 174.90 475.36 162.46
  Q 480.69 160.51 486.75 160.75
  Q 492.33 160.97 499.42 160.24
  Q 506.31 159.53 511.81 154.85
  A 0.46 0.45 46.2 0 0 511.82 154.17
  Q 504.75 147.80 495.75 146.00
  Q 489.00 144.65 477.25 144.92
  Q 462.95 145.25 448.78 147.24
  Q 411.70 152.43 376.56 165.31
  Q 333.75 181.01 293.37 202.17
  Q 233.84 233.36 177.94 270.69
  Q 171.73 274.83 167.76 279.02
  Q 165.33 281.59 164.52 284.76
  Q 163.68 288.04 163.74 291.49
  A 0.36 0.36 -10.9 0 0 164.23 291.82
  Q 173.72 288.26 182.21 282.68
  Q 192.91 275.65 205.26 272.25
  Q 207.15 271.73 206.08 273.37
  Q 200.90 281.30 191.57 286.33
  Q 189.98 287.19 181.94 291.94
  Q 176.06 295.41 172.53 300.58
  A 0.88 0.78 -43.8 0 0 172.46 301.46
  L 178.62 312.59
  A 1.00 0.94 -29.3 0 0 179.96 312.92
  Q 200.45 301.49 221.28 290.62
  Q 242.26 279.68 262.96 268.22
  Q 276.61 260.65 293.72 257.70
  Q 295.24 257.44 294.05 258.42
  Q 288.34 263.09 283.17 267.54
  Q 282.43 268.17 282.16 268.77
  Q 281.49 270.23 283.02 270.42
  Q 283.76 270.51 284.78 270.08
  Q 298.55 264.28 313.35 258.04
  Q 314.00 257.76 313.83 258.45
  Q 299.66 316.36 287.91 373.64
  Z
  M 217.98 328.19
  Q 223.84 329.69 229.62 328.23
  Q 234.27 327.05 236.59 324.44
  Q 239.43 321.24 239.11 316.24
  Q 238.81 311.48 236.46 307.68
  A 3.89 3.82 -1.8 0 0 234.90 306.24
  Q 230.07 303.78 225.41 303.40
  Q 220.06 302.96 216.14 305.55
  Q 210.61 309.22 210.75 317.25
  Q 210.83 321.82 213.23 325.15
  Q 214.86 327.39 217.98 328.19
  Z
  M 387.31 375.29
  Q 403.25 375.63 418.38 375.51
  Q 418.47 375.51 420.61 375.63
  Q 423.23 375.79 424.69 374.19
  Q 429.57 368.82 436.31 365.97
  Q 437.34 365.54 436.23 365.49
  Q 418.32 364.68 400.14 364.98
  Q 400.07 364.99 398.36 364.92
  Q 395.78 364.82 394.19 366.44
  Q 390.65 370.03 386.88 374.30
  Q 386.03 375.27 387.31 375.29
  Z
  M 331.75 451.55
  A 0.47 0.47 0.0 0 0 331.28 451.08
  L 328.96 451.08
  A 0.47 0.47 0.0 0 0 328.49 451.55
  L 328.49 486.45
  A 0.47 0.47 0.0 0 0 328.96 486.92
  L 331.28 486.92
  A 0.47 0.47 0.0 0 0 331.75 486.45
  L 331.75 451.55
  Z
  M 356.17 468.81
  L 356.01 486.11
  A 0.79 0.78 5.3 0 0 356.66 486.88
  Q 358.81 487.30 359.20 486.25
  Q 359.24 486.14 359.26 484.23
  Q 359.35 476.32 359.09 469.20
  A 1.21 1.21 1.1 0 1 360.39 467.95
  Q 363.14 468.17 363.21 466.30
  A 0.87 0.79 16.9 0 0 362.76 465.55
  Q 361.35 464.76 359.93 464.90
  A 0.70 0.69 87.5 0 1 359.17 464.19
  L 359.24 455.11
  A 1.20 1.19 -86.6 0 1 360.56 453.92
  Q 364.00 454.32 363.45 451.92
  A 0.88 0.88 2.3 0 0 362.85 451.27
  Q 360.81 450.67 357.55 451.71
  A 1.72 1.71 -5.7 0 0 356.38 453.13
  Q 355.68 459.00 356.29 464.05
  A 0.86 0.85 -3.0 0 1 355.43 465.00
  Q 351.96 464.96 353.76 467.53
  A 1.33 0.66 0.4 0 0 354.57 467.94
  L 355.71 468.14
  A 0.70 0.55 -86.2 0 1 356.17 468.81
  Z
  M 460.3346 456.6092
  A 0.53 0.53 0.0 0 0 459.7945 456.0895
  L 457.6149 456.1314
  A 0.53 0.53 0.0 0 0 457.0952 456.6714
  L 457.1654 460.3308
  A 0.53 0.53 0.0 0 0 457.7055 460.8505
  L 459.8851 460.8086
  A 0.53 0.53 0.0 0 0 460.4048 460.2686
  L 460.3346 456.6092
  Z
  M 446.16 468.82
  L 446.24 485.34
  A 1.38 1.26 10.4 0 0 447.17 486.56
  Q 449.89 487.49 452.58 486.72
  A 0.82 0.79 -4.7 0 0 453.16 486.06
  Q 453.52 483.55 450.42 484.01
  A 1.05 1.02 85.2 0 1 449.24 482.98
  L 449.04 469.18
  A 1.22 1.17 -86.6 0 1 450.37 467.95
  Q 453.21 468.34 453.22 466.30
  A 0.91 0.83 16.0 0 0 452.76 465.55
  Q 451.52 464.87 450.22 464.98
  A 1.03 1.01 84.3 0 1 449.12 464.07
  Q 448.91 462.22 449.05 460.89
  Q 449.21 459.24 448.90 458.66
  Q 448.18 457.35 446.43 458.26
  A 0.80 0.75 76.1 0 0 446.02 458.99
  L 446.25 464.26
  A 0.72 0.72 1.1 0 1 445.48 465.00
  Q 442.27 464.74 443.51 467.31
  A 1.14 0.97 -3.8 0 0 444.24 467.85
  L 445.70 468.18
  A 0.67 0.60 -84.1 0 1 446.16 468.82
  Z
  M 345.65 468.23
  A 1.00 0.98 -3.2 0 1 346.83 469.26
  Q 346.28 477.48 346.69 484.60
  Q 346.80 486.35 346.81 486.39
  Q 347.17 487.35 349.08 486.85
  A 0.90 0.90 -7.6 0 0 349.75 485.98
  L 349.75 466.87
  A 1.66 1.65 -86.0 0 0 348.33 465.23
  Q 346.78 465.00 345.09 465.41
  Q 341.45 466.30 338.03 465.10
  A 0.77 0.77 9.9 0 0 337.00 465.82
  L 337.00 486.00
  A 0.75 0.68 -81.3 0 0 337.46 486.69
  Q 338.70 487.12 339.78 486.48
  A 1.00 0.79 77.7 0 0 340.17 485.68
  L 340.02 470.69
  A 1.80 1.69 -5.7 0 1 341.50 469.00
  L 345.65 468.23
  Z
  M 379.1042 467.8518
  A 2.79 2.79 0.0 0 0 376.3191 465.0569
  L 368.4191 465.0431
  A 2.79 2.79 0.0 0 0 365.6243 467.8282
  L 365.5958 484.1682
  A 2.79 2.79 0.0 0 0 368.3809 486.9631
  L 376.2809 486.9769
  A 2.79 2.79 0.0 0 0 379.0757 484.1918
  L 379.1042 467.8518
  Z
  M 392.45 468.81
  L 392.55 472.19
  A 0.69 0.68 -82.6 0 0 393.04 472.84
  Q 395.94 473.68 395.92 471.11
  Q 395.90 468.93 395.92 468.39
  Q 396.05 465.48 393.63 465.15
  Q 393.34 465.11 390.29 465.60
  Q 387.74 466.01 385.24 465.00
  A 0.86 0.85 11.4 0 0 384.06 465.78
  L 383.82 485.94
  A 0.84 0.75 -78.0 0 0 384.25 486.69
  Q 385.52 487.31 386.81 486.73
  A 0.79 0.75 78.4 0 0 387.26 486.00
  L 386.94 469.79
  A 0.70 0.54 85.7 0 1 387.39 469.11
  L 391.93 468.31
  A 0.51 0.44 84.5 0 1 392.45 468.81
  Z
  M 413.29 469.44
  L 418.23 468.25
  A 0.86 0.84 83.2 0 1 419.26 469.08
  L 419.31 486.19
  A 0.68 0.68 -82.0 0 0 419.80 486.84
  Q 422.86 487.73 422.66 485.01
  Q 422.52 483.11 422.52 482.98
  Q 422.66 474.65 422.29 466.99
  Q 422.17 464.67 420.12 465.12
  L 413.42 466.58
  A 1.52 1.15 -21.7 0 1 412.01 466.19
  Q 411.11 465.02 410.02 465.02
  Q 409.87 465.01 407.98 465.46
  Q 406.65 465.77 404.00 466.50
  Q 403.38 466.67 403.09 466.03
  A 1.69 0.64 73.8 0 0 402.52 465.27
  Q 401.08 464.40 400.10 465.54
  A 1.42 1.04 70.5 0 0 399.83 466.43
  Q 400.32 480.18 399.75 483.50
  Q 398.94 488.18 402.73 486.64
  A 0.76 0.73 78.7 0 0 403.18 485.93
  L 403.06 470.32
  A 0.79 0.76 78.5 0 1 403.51 469.61
  Q 406.18 468.46 409.06 468.43
  A 0.51 0.50 90.0 0 1 409.56 468.94
  L 409.56 486.19
  A 0.69 0.68 -81.4 0 0 410.04 486.85
  Q 413.13 487.83 412.90 485.15
  Q 412.75 483.41 412.75 483.33
  Q 412.74 476.70 412.81 470.06
  A 0.64 0.63 83.1 0 1 413.29 469.44
  Z
  M 436.46 468.56
  L 436.46 473.25
  A 0.92 0.90 3.4 0 1 435.43 474.14
  Q 430.77 473.59 427.85 474.70
  A 1.66 1.66 0.0 0 0 426.80 476.05
  Q 426.22 480.97 426.76 485.06
  Q 427.09 487.50 429.49 487.00
  Q 434.14 486.05 439.08 487.07
  A 0.56 0.56 -84.1 0 0 439.75 486.52
  L 439.75 467.32
  A 1.99 1.98 5.9 0 0 438.17 465.38
  Q 434.03 464.52 429.00 465.29
  A 2.20 2.20 -87.7 0 0 427.18 466.97
  Q 425.99 472.07 429.79 470.68
  A 0.61 0.53 75.6 0 0 430.12 470.01
  Q 429.96 469.16 430.29 468.48
  A 0.91 0.79 11.4 0 1 431.07 468.04
  L 435.93 468.04
  A 0.53 0.52 -0.0 0 1 436.46 468.56
  Z
  M 460.3654 465.5511
  A 0.52 0.52 0.0 0 0 459.8426 465.0339
  L 457.4427 465.0464
  A 0.52 0.52 0.0 0 0 456.9254 465.5691
  L 457.0346 486.4289
  A 0.52 0.52 0.0 0 0 457.5574 486.9461
  L 459.9573 486.9336
  A 0.52 0.52 0.0 0 0 460.4746 486.4109
  L 460.3654 465.5511
  Z
  M 478.0289 467.7334
  A 2.68 2.68 0.0 0 0 475.3583 465.0440
  L 467.3583 465.0161
  A 2.68 2.68 0.0 0 0 464.6690 467.6867
  L 464.6111 484.2666
  A 2.68 2.68 0.0 0 0 467.2817 486.9560
  L 475.2817 486.9839
  A 2.68 2.68 0.0 0 0 477.9710 484.3133
  L 478.0289 467.7334
  Z
  M 492.92 468.56
  Q 492.65 476.61 492.74 484.66
  Q 492.74 484.79 492.63 485.81
  Q 492.45 487.35 494.67 486.97
  A 1.30 1.30 -5.2 0 0 495.75 485.68
  Q 495.72 477.56 495.53 470.24
  Q 495.52 469.76 495.82 467.81
  Q 496.09 466.00 494.66 465.38
  Q 493.72 464.96 491.67 465.26
  Q 489.92 465.52 488.18 465.88
  Q 486.60 466.20 485.34 465.37
  Q 484.84 465.03 484.43 465.01
  Q 482.51 464.88 482.89 466.31
  Q 483.17 467.39 483.16 467.87
  Q 482.84 477.03 483.05 486.19
  A 0.69 0.65 -84.0 0 0 483.55 486.84
  Q 484.50 487.07 485.46 486.83
  A 0.68 0.63 83.5 0 0 485.94 486.18
  L 486.06 470.07
  A 0.70 0.62 84.4 0 1 486.54 469.40
  L 492.44 468.11
  A 0.44 0.40 85.5 0 1 492.92 468.56
  Z
  M 254.28 472.12
  Q 254.54 471.42 254.40 470.72
  Q 254.27 470.14 253.84 470.54
  L 248.14 475.80
  Q 247.68 476.23 248.30 476.07
  L 253.21 474.81
  A 0.92 0.65 -6.3 0 0 253.88 474.22
  L 254.08 473.06
  Q 254.22 472.27 254.28 472.12
  Z
  M 232.87 489.46
  L 240.34 481.93
  Q 240.74 481.53 240.27 481.82
  Q 229.78 488.13 217.78 490.67
  Q 217.67 490.69 217.61 490.76
  Q 217.52 490.84 217.51 490.94
  A 0.29 0.19 1.4 0 0 217.83 491.16
  L 229.65 490.69
  Q 231.72 490.61 232.87 489.46
  Z
  M 264.33 482.69
  Q 262.19 481.94 259.95 481.89
  Q 256.98 481.81 255.56 481.87
  Q 252.55 481.98 250.36 483.84
  Q 248.63 485.31 248.32 488.16
  Q 247.79 493.14 248.83 498.08
  A 0.70 0.69 -2.3 0 0 249.43 498.63
  Q 252.49 499.04 258.50 499.00
  Q 264.46 498.96 265.28 493.47
  Q 265.98 488.75 265.52 484.20
  A 1.80 1.78 7.0 0 0 264.33 482.69
  Z
  M 194.50 500.58
  Q 199.56 501.77 204.70 501.10
  Q 207.28 500.75 208.60 499.85
  Q 210.63 498.46 210.69 495.94
  Q 210.80 491.09 210.75 486.42
  Q 210.73 484.44 208.77 484.25
  Q 204.64 483.85 200.50 484.05
  Q 196.48 484.25 194.65 486.99
  Q 193.42 488.83 193.29 492.75
  Q 193.17 496.01 193.56 499.51
  A 1.23 1.23 -86.3 0 0 194.50 500.58
  Z
  M 339.47 499.32
  Q 341.00 498.80 342.64 498.90
  Q 343.79 498.98 344.32 498.71
  Q 345.60 498.05 344.73 496.71
  A 1.11 0.96 -11.3 0 0 343.94 496.26
  Q 337.38 495.62 330.82 496.26
  A 0.63 0.60 -0.7 0 0 330.25 496.81
  Q 330.02 499.78 333.79 498.93
  Q 336.05 498.43 335.99 500.74
  Q 335.70 511.17 335.94 522.00
  Q 335.99 523.89 335.85 526.49
  Q 335.73 528.75 335.75 531.00
  A 0.84 0.77 -78.4 0 0 336.19 531.74
  Q 337.33 532.28 338.58 531.97
  A 0.72 0.67 84.1 0 0 339.08 531.31
  Q 339.56 515.65 339.02 500.00
  A 0.70 0.67 79.9 0 1 339.47 499.32
  Z
  M 391.89 513.16
  A 0.76 0.75 85.3 0 1 392.79 513.94
  Q 392.50 521.28 392.71 527.73
  Q 392.71 527.87 392.52 530.24
  Q 392.30 532.85 395.46 531.85
  A 0.70 0.69 -8.2 0 0 395.95 531.20
  Q 396.18 522.95 395.80 514.70
  Q 395.79 514.64 395.82 512.81
  Q 395.89 509.08 391.66 510.05
  Q 389.20 510.61 386.85 511.22
  A 0.65 0.63 82.9 0 1 386.05 510.58
  L 386.26 497.00
  A 0.81 0.76 -78.9 0 0 385.80 496.27
  Q 384.57 495.74 383.28 496.14
  A 0.73 0.67 83.0 0 0 382.80 496.81
  Q 382.55 512.44 382.97 528.06
  Q 382.98 528.10 382.89 529.95
  Q 382.77 532.78 385.59 531.75
  A 0.76 0.72 81.1 0 0 386.06 531.06
  L 386.17 514.94
  A 0.66 0.64 84.5 0 1 386.67 514.31
  L 391.89 513.16
  Z
  M 439.50 496.66
  A 0.64 0.64 0.0 0 0 438.86 496.02
  L 436.60 496.02
  A 0.64 0.64 0.0 0 0 435.96 496.66
  L 435.96 531.32
  A 0.64 0.64 0.0 0 0 436.60 531.96
  L 438.86 531.96
  A 0.64 0.64 0.0 0 0 439.50 531.32
  L 439.50 496.66
  Z
  M 213.34 527.75
  Q 215.74 529.29 218.51 529.21
  Q 222.91 529.07 227.33 529.02
  Q 233.28 528.96 235.98 527.79
  Q 241.80 525.27 242.66 518.76
  Q 242.80 517.71 242.80 510.74
  Q 242.80 506.73 242.60 502.72
  Q 242.48 500.51 241.64 499.51
  Q 240.43 498.09 238.25 498.07
  Q 231.18 498.01 224.12 498.00
  Q 220.21 498.00 218.06 499.00
  Q 214.99 500.44 213.22 503.20
  Q 211.48 505.92 211.27 511.67
  Q 211.04 518.31 211.45 524.55
  Q 211.59 526.63 213.34 527.75
  Z
  M 351.31 522.25
  L 358.91 522.01
  A 1.77 1.62 2.6 0 0 360.59 520.61
  Q 361.22 516.00 360.29 511.30
  A 0.88 0.87 -86.6 0 0 359.71 510.64
  Q 357.69 509.94 355.57 509.88
  Q 352.12 509.78 350.93 509.90
  Q 347.39 510.26 347.63 514.39
  Q 347.75 516.52 347.75 516.62
  Q 347.75 521.16 347.75 525.70
  Q 347.75 525.76 347.64 527.80
  Q 347.42 531.68 350.74 532.07
  Q 352.04 532.23 355.26 532.17
  Q 357.60 532.13 359.74 531.15
  A 1.32 1.22 -89.0 0 0 360.39 530.47
  Q 362.44 525.41 357.80 526.22
  A 0.62 0.51 86.3 0 0 357.37 526.82
  L 357.37 528.31
  A 0.66 0.59 -5.2 0 1 356.82 528.90
  Q 354.08 529.35 351.41 528.69
  A 0.67 0.59 -84.5 0 1 350.96 528.07
  L 350.85 522.81
  A 0.55 0.48 88.3 0 1 351.31 522.25
  Z
  M 369.55 513.20
  L 374.67 513.18
  A 0.85 0.77 -83.9 0 1 375.41 514.19
  Q 374.44 519.06 377.98 517.86
  A 0.94 0.93 -2.0 0 0 378.59 517.22
  Q 378.88 516.20 378.80 515.17
  Q 378.67 513.63 378.55 512.69
  Q 378.22 510.00 375.00 510.00
  Q 372.25 510.00 369.50 509.94
  Q 365.61 509.84 365.60 513.75
  Q 365.57 522.01 365.99 530.14
  A 1.72 1.72 2.2 0 0 367.48 531.75
  Q 371.24 532.24 374.99 531.91
  Q 377.51 531.69 378.14 530.15
  Q 378.79 528.54 378.20 525.92
  A 1.24 1.24 88.0 0 0 377.16 524.95
  Q 374.27 524.54 375.50 527.51
  A 0.98 0.87 77.3 0 1 374.75 528.86
  L 369.69 528.89
  A 0.59 0.53 89.5 0 1 369.16 528.31
  L 369.05 513.81
  A 0.60 0.50 89.4 0 1 369.55 513.20
  Z
  M 404.80 514.20
  L 410.30 513.16
  A 0.43 0.41 85.6 0 1 410.78 513.59
  L 410.55 530.69
  A 1.14 1.03 -70.9 0 0 410.91 531.54
  Q 412.13 532.63 413.54 531.73
  A 0.94 0.83 74.5 0 0 413.93 530.93
  L 413.55 512.21
  Q 413.48 508.88 410.33 510.06
  Q 406.42 511.52 402.21 510.07
  A 0.91 0.91 9.6 0 0 401.00 510.93
  Q 401.00 519.35 401.00 528.15
  Q 401.00 528.22 400.91 529.85
  Q 400.74 533.08 403.74 531.67
  A 0.78 0.75 75.8 0 0 404.16 530.93
  Q 403.67 522.87 404.27 514.82
  A 0.69 0.66 86.8 0 1 404.80 514.20
  Z
  M 432.0145 512.7116
  A 2.67 2.67 0.0 0 0 429.3491 510.0370
  L 421.3692 510.0231
  A 2.67 2.67 0.0 0 0 418.6945 512.6884
  L 418.6655 529.2884
  A 2.67 2.67 0.0 0 0 421.3309 531.9630
  L 429.3108 531.9769
  A 2.67 2.67 0.0 0 0 431.9855 529.3116
  L 432.0145 512.7116
  Z
  M 458.1422 513.0162
  A 3.03 3.03 0.0 0 0 455.1016 509.9968
  L 447.5217 510.0233
  A 3.03 3.03 0.0 0 0 444.5023 513.0639
  L 444.5578 528.9838
  A 3.03 3.03 0.0 0 0 447.5984 532.0032
  L 455.1783 531.9767
  A 3.03 3.03 0.0 0 0 458.1977 528.9361
  L 458.1422 513.0162
  Z
  M 472.57 532.54
  L 472.63 536.23
  A 0.87 0.76 -0.3 0 1 471.76 537.00
  L 468.00 537.00
  A 2.66 0.57 47.6 0 1 466.25 535.75
  Q 465.04 534.53 463.52 535.10
  A 0.80 0.77 81.2 0 0 463.02 535.81
  Q 462.93 537.64 464.00 539.06
  A 1.42 1.18 -8.4 0 0 464.80 539.55
  Q 469.84 540.70 474.15 539.63
  A 2.10 2.10 83.2 0 0 475.75 537.59
  L 475.75 510.86
  A 0.92 0.92 -10.2 0 0 474.51 510.00
  Q 471.54 511.10 468.47 510.37
  Q 465.69 509.70 464.10 511.31
  Q 463.02 512.41 462.87 515.02
  Q 462.63 519.45 462.72 523.89
  Q 462.72 523.98 462.59 526.61
  Q 462.40 530.67 466.00 531.75
  Q 467.28 532.13 471.93 532.07
  A 0.63 0.47 -0.6 0 1 472.57 532.54
  Z
  M 485.67 526.70
  Q 483.66 519.60 482.43 512.32
  Q 482.18 510.85 481.58 510.43
  Q 480.75 509.83 479.23 510.09
  A 0.49 0.48 78.1 0 0 478.85 510.68
  Q 480.93 519.51 483.07 528.04
  Q 483.87 531.24 483.53 533.53
  Q 483.14 536.16 482.06 538.96
  A 0.64 0.63 -72.2 0 0 482.49 539.80
  Q 485.02 540.46 485.40 538.98
  Q 489.01 525.01 492.38 510.99
  A 0.69 0.65 -69.2 0 0 492.07 510.23
  Q 490.75 509.55 489.62 510.42
  A 1.46 1.08 83.7 0 0 489.15 511.23
  L 485.92 526.69
  Q 485.81 527.19 485.67 526.70
  Z
  M 249.4693 519.8884
  A 0.65 0.56 133.9 0 0 250.3235 519.8083
  A 0.65 0.56 133.9 0 0 250.3707 518.9516
  A 0.65 0.56 133.9 0 0 249.5165 519.0317
  A 0.65 0.56 133.9 0 0 249.4693 519.8884
  Z
  M 258.72 528.50
  Q 257.51 527.57 256.31 527.32
  Q 256.29 527.32 253.70 527.13
  Q 250.19 526.88 245.50 527.25
  Q 236.82 527.94 236.78 536.50
  Q 236.75 541.37 236.75 546.30
  Q 236.75 549.15 239.56 549.64
  Q 245.42 550.66 251.80 549.69
  Q 254.74 549.24 256.38 547.98
  Q 258.55 546.30 259.23 543.70
  Q 259.58 542.34 259.72 536.79
  Q 259.81 533.43 259.42 529.75
  A 1.84 1.80 16.3 0 0 258.72 528.50
  Z"
/>
<path fill="#39b4b6" d="
  M 279.71 421.25
  Q 289.02 402.46 297.57 383.32
  Q 299.01 380.09 298.71 376.78
  Q 298.47 374.15 295.99 373.25
  Q 292.38 371.94 289.39 373.86
  Q 289.08 374.06 287.91 373.64
  Q 299.66 316.36 313.83 258.45
  Q 314.00 257.76 313.35 258.04
  Q 298.55 264.28 284.78 270.08
  Q 283.76 270.51 283.02 270.42
  Q 281.49 270.23 282.16 268.77
  Q 282.43 268.17 283.17 267.54
  Q 288.34 263.09 294.05 258.42
  Q 295.24 257.44 293.72 257.70
  Q 276.61 260.65 262.96 268.22
  Q 242.26 279.68 221.28 290.62
  Q 200.45 301.49 179.96 312.92
  A 1.00 0.94 -29.3 0 1 178.62 312.59
  L 172.46 301.46
  A 0.88 0.78 -43.8 0 1 172.53 300.58
  Q 176.06 295.41 181.94 291.94
  Q 189.98 287.19 191.57 286.33
  Q 200.90 281.30 206.08 273.37
  Q 207.15 271.73 205.26 272.25
  Q 192.91 275.65 182.21 282.68
  Q 173.72 288.26 164.23 291.82
  A 0.36 0.36 -10.9 0 1 163.74 291.49
  Q 163.68 288.04 164.52 284.76
  Q 165.33 281.59 167.76 279.02
  Q 171.73 274.83 177.94 270.69
  Q 233.84 233.36 293.37 202.17
  Q 333.75 181.01 376.56 165.31
  Q 411.70 152.43 448.78 147.24
  Q 462.95 145.25 477.25 144.92
  Q 489.00 144.65 495.75 146.00
  Q 504.75 147.80 511.82 154.17
  A 0.46 0.45 46.2 0 1 511.81 154.85
  Q 506.31 159.53 499.42 160.24
  Q 492.33 160.97 486.75 160.75
  Q 480.69 160.51 475.36 162.46
  Q 441.43 174.90 407.12 186.88
  A 0.82 0.82 72.9 0 0 406.60 187.87
  Q 407.47 191.03 409.31 194.19
  Q 410.17 195.65 411.91 196.45
  Q 413.24 197.06 415.19 197.03
  Q 419.44 196.96 423.42 195.48
  Q 426.67 194.29 426.75 194.26
  Q 431.83 192.57 436.85 190.70
  Q 463.76 180.72 492.50 181.00
  Q 498.74 181.06 523.84 182.59
  Q 529.00 182.90 529.14 182.93
  Q 532.04 183.60 533.56 186.45
  A 0.38 0.37 -16.6 0 1 533.26 187.00
  Q 484.62 191.18 438.75 207.75
  Q 429.69 211.02 399.19 221.74
  Q 399.10 221.77 396.28 222.66
  Q 390.88 224.34 387.81 228.31
  Q 384.99 231.97 383.05 237.57
  Q 381.78 241.21 381.76 241.27
  Q 360.74 298.24 344.82 356.83
  A 0.41 0.40 -80.6 0 0 345.18 357.34
  Q 359.83 358.05 373.90 357.52
  A 2.64 2.57 -68.3 0 0 375.65 356.74
  L 398.03 334.10
  A 2.06 2.00 21.6 0 1 399.48 333.50
  L 463.82 333.50
  A 1.61 1.59 -72.6 0 0 465.14 332.80
  Q 468.46 327.91 472.91 325.53
  Q 477.37 323.14 482.92 323.68
  Q 492.42 324.60 496.94 333.81
  Q 499.19 338.40 498.44 343.41
  Q 497.75 348.06 494.77 351.97
  Q 491.23 356.61 485.66 358.08
  Q 478.96 359.85 473.09 356.92
  Q 467.10 353.93 464.15 346.59
  A 1.77 1.77 -11.1 0 0 462.51 345.49
  L 405.88 345.49
  Q 404.13 345.49 402.92 346.71
  L 380.84 368.78
  A 3.31 3.26 22.0 0 1 378.50 369.75
  L 342.24 369.75
  A 1.25 1.24 -82.4 0 0 341.04 370.67
  L 338.08 381.60
  A 0.51 0.51 -82.2 0 0 338.57 382.25
  L 428.59 382.25
  A 1.11 1.09 14.0 0 0 429.56 381.68
  Q 434.25 373.06 442.57 371.71
  Q 450.11 370.48 456.52 375.14
  Q 463.60 380.28 463.10 389.71
  Q 462.78 395.90 459.42 400.08
  Q 456.90 403.20 453.17 404.95
  Q 449.76 406.54 445.62 406.50
  Q 434.02 406.41 429.18 395.21
  A 1.18 1.18 78.1 0 0 428.10 394.50
  L 335.47 394.50
  A 0.66 0.64 6.0 0 0 334.83 395.00
  L 332.00 407.17
  A 0.69 0.68 6.3 0 0 332.68 408.00
  L 386.58 408.00
  A 1.48 1.48 14.3 0 0 387.88 407.23
  Q 391.09 401.47 396.61 399.19
  Q 402.42 396.79 407.95 398.17
  Q 413.39 399.52 417.12 403.84
  Q 420.34 407.56 421.08 412.58
  Q 421.77 417.25 420.00 421.74
  Q 417.56 427.94 411.74 430.83
  Q 406.27 433.54 400.33 432.38
  Q 391.50 430.66 386.75 420.99
  A 1.32 1.31 77.0 0 0 385.57 420.25
  L 329.55 420.25
  A 0.83 0.82 6.0 0 0 328.74 420.90
  Q 320.16 459.92 313.87 499.73
  Q 309.77 525.71 311.24 551.88
  A 1.00 0.99 81.8 0 1 310.48 552.91
  Q 305.10 554.17 300.25 554.17
  Q 292.03 554.17 290.49 546.20
  Q 287.79 532.19 287.72 517.99
  Q 287.70 512.41 288.25 498.01
  Q 288.68 486.61 289.82 475.26
  Q 291.11 462.39 292.24 449.65
  Q 292.49 446.77 291.51 449.49
  Q 289.31 455.53 287.93 461.79
  Q 285.08 474.79 282.55 487.86
  Q 279.65 502.82 271.16 515.49
  Q 269.51 517.94 269.63 514.99
  Q 271.57 468.64 279.71 421.25
  Z
  M 270.94 252.16
  Q 275.14 246.64 280.99 243.37
  Q 281.52 243.07 293.06 238.21
  Q 304.27 233.48 315.40 228.61
  Q 319.25 226.93 322.67 222.80
  Q 323.22 222.14 322.39 222.35
  Q 286.38 231.49 255.47 251.49
  A 0.37 0.37 -42.2 0 0 255.44 252.09
  Q 257.78 253.95 260.39 254.99
  Q 266.82 257.57 270.94 252.16
  Z"
/>
<path fill="#044b4a" d="
  M 270.94 252.16
  Q 266.82 257.57 260.39 254.99
  Q 257.78 253.95 255.44 252.09
  A 0.37 0.37 -42.2 0 1 255.47 251.49
  Q 286.38 231.49 322.39 222.35
  Q 323.22 222.14 322.67 222.80
  Q 319.25 226.93 315.40 228.61
  Q 304.27 233.48 293.06 238.21
  Q 281.52 243.07 280.99 243.37
  Q 275.14 246.64 270.94 252.16
  Z"
/>
<path fill="#65b847" d="
  M 213.23 325.15
  Q 210.83 321.82 210.75 317.25
  Q 210.61 309.22 216.14 305.55
  Q 220.06 302.96 225.41 303.40
  Q 230.07 303.78 234.90 306.24
  A 3.89 3.82 -1.8 0 1 236.46 307.68
  Q 238.81 311.48 239.11 316.24
  Q 239.43 321.24 236.59 324.44
  Q 234.27 327.05 229.62 328.23
  Q 223.84 329.69 217.98 328.19
  Q 214.86 327.39 213.23 325.15
  Z"
/>
<path fill="#65b847" d="
  M 287.91 373.64
  Q 289.08 374.06 289.39 373.86
  Q 292.38 371.94 295.99 373.25
  Q 298.47 374.15 298.71 376.78
  Q 299.01 380.09 297.57 383.32
  Q 289.02 402.46 279.71 421.25
  Q 270.88 438.77 261.44 450.69
  Q 253.01 461.32 240.41 466.92
  Q 229.84 471.62 221.04 470.47
  Q 208.58 468.83 201.50 456.75
  Q 198.70 451.98 197.59 445.29
  Q 191.18 406.64 201.50 371.25
  Q 202.28 368.57 204.83 366.64
  Q 206.08 365.68 209.61 363.83
  Q 216.73 360.08 224.76 358.80
  Q 227.26 358.40 229.75 358.77
  Q 232.66 359.20 232.89 361.65
  Q 232.94 362.12 232.50 365.35
  Q 229.04 390.70 227.46 416.25
  Q 227.11 422.03 227.49 427.79
  Q 227.50 428.02 227.60 428.19
  Q 227.97 428.84 228.08 427.73
  Q 229.76 410.46 231.86 393.23
  Q 233.61 378.87 236.89 364.10
  A 0.37 0.37 21.2 0 1 237.44 363.86
  Q 238.38 364.38 238.79 365.61
  Q 239.80 368.58 240.11 371.66
  Q 240.33 373.86 239.95 377.82
  Q 237.32 404.74 235.94 431.76
  Q 235.75 435.50 235.75 439.25
  Q 235.75 441.15 236.86 443.30
  Q 237.99 445.47 239.76 446.04
  Q 241.88 446.72 244.18 445.42
  Q 251.95 441.03 256.14 433.11
  Q 270.12 406.66 283.31 379.81
  Q 284.96 376.46 287.91 373.64
  Z"
/>
<path fill="#ffffff" d="
  M 387.31 375.29
  Q 386.03 375.27 386.88 374.30
  Q 390.65 370.03 394.19 366.44
  Q 395.78 364.82 398.36 364.92
  Q 400.07 364.99 400.14 364.98
  Q 418.32 364.68 436.23 365.49
  Q 437.34 365.54 436.31 365.97
  Q 429.57 368.82 424.69 374.19
  Q 423.23 375.79 420.61 375.63
  Q 418.47 375.51 418.38 375.51
  Q 403.25 375.63 387.31 375.29
  Z"
/>
<rect fill="#66b563" x="328.49" y="451.08" width="3.26" height="35.84" rx="0.47"/>
<path fill="#62b260" d="
  M 355.71 468.14
  L 354.57 467.94
  A 1.33 0.66 0.4 0 1 353.76 467.53
  Q 351.96 464.96 355.43 465.00
  A 0.86 0.85 -3.0 0 0 356.29 464.05
  Q 355.68 459.00 356.38 453.13
  A 1.72 1.71 -5.7 0 1 357.55 451.71
  Q 360.81 450.67 362.85 451.27
  A 0.88 0.88 2.3 0 1 363.45 451.92
  Q 364.00 454.32 360.56 453.92
  A 1.20 1.19 -86.6 0 0 359.24 455.11
  L 359.17 464.19
  A 0.70 0.69 87.5 0 0 359.93 464.90
  Q 361.35 464.76 362.76 465.55
  A 0.87 0.79 16.9 0 1 363.21 466.30
  Q 363.14 468.17 360.39 467.95
  A 1.21 1.21 1.1 0 0 359.09 469.20
  Q 359.35 476.32 359.26 484.23
  Q 359.24 486.14 359.20 486.25
  Q 358.81 487.30 356.66 486.88
  A 0.79 0.78 5.3 0 1 356.01 486.11
  L 356.17 468.81
  A 0.70 0.55 -86.2 0 0 355.71 468.14
  Z"
/>
<rect fill="#66b563" x="-1.62" y="-2.36" transform="translate(458.75,458.47) rotate(-1.1)" width="3.24" height="4.72" rx="0.53"/>
<path fill="#62b260" d="
  M 445.70 468.18
  L 444.24 467.85
  A 1.14 0.97 -3.8 0 1 443.51 467.31
  Q 442.27 464.74 445.48 465.00
  A 0.72 0.72 1.1 0 0 446.25 464.26
  L 446.02 458.99
  A 0.80 0.75 76.1 0 1 446.43 458.26
  Q 448.18 457.35 448.90 458.66
  Q 449.21 459.24 449.05 460.89
  Q 448.91 462.22 449.12 464.07
  A 1.03 1.01 84.3 0 0 450.22 464.98
  Q 451.52 464.87 452.76 465.55
  A 0.91 0.83 16.0 0 1 453.22 466.30
  Q 453.21 468.34 450.37 467.95
  A 1.22 1.17 -86.6 0 0 449.04 469.18
  L 449.24 482.98
  A 1.05 1.02 85.2 0 0 450.42 484.01
  Q 453.52 483.55 453.16 486.06
  A 0.82 0.79 -4.7 0 1 452.58 486.72
  Q 449.89 487.49 447.17 486.56
  A 1.38 1.26 10.4 0 1 446.24 485.34
  L 446.16 468.82
  A 0.67 0.60 -84.1 0 0 445.70 468.18
  Z"
/>
<path fill="#62b260" d="
  M 345.65 468.23
  L 341.50 469.00
  A 1.80 1.69 -5.7 0 0 340.02 470.69
  L 340.17 485.68
  A 1.00 0.79 77.7 0 1 339.78 486.48
  Q 338.70 487.12 337.46 486.69
  A 0.75 0.68 -81.3 0 1 337.00 486.00
  L 337.00 465.82
  A 0.77 0.77 9.9 0 1 338.03 465.10
  Q 341.45 466.30 345.09 465.41
  Q 346.78 465.00 348.33 465.23
  A 1.66 1.65 -86.0 0 1 349.75 466.87
  L 349.75 485.98
  A 0.90 0.90 -7.6 0 1 349.08 486.85
  Q 347.17 487.35 346.81 486.39
  Q 346.80 486.35 346.69 484.60
  Q 346.28 477.48 346.83 469.26
  A 1.00 0.98 -3.2 0 0 345.65 468.23
  Z"
/>
<path fill="#62b260" d="
  M 379.0757 484.1918
  A 2.79 2.79 0.0 0 1 376.2809 486.9769
  L 368.3809 486.9631
  A 2.79 2.79 0.0 0 1 365.5958 484.1682
  L 365.6243 467.8282
  A 2.79 2.79 0.0 0 1 368.4191 465.0431
  L 376.3191 465.0569
  A 2.79 2.79 0.0 0 1 379.1042 467.8518
  L 379.0757 484.1918
  Z
  M 375.7183 468.5869
  A 0.59 0.59 0.0 0 0 375.1242 468.0010
  L 369.6244 468.0394
  A 0.59 0.59 0.0 0 0 369.0385 468.6335
  L 369.1417 483.4131
  A 0.59 0.59 0.0 0 0 369.7358 483.9990
  L 375.2356 483.9606
  A 0.59 0.59 0.0 0 0 375.8215 483.3665
  L 375.7183 468.5869
  Z"
/>
<path fill="#62b260" d="
  M 391.93 468.31
  L 387.39 469.11
  A 0.70 0.54 85.7 0 0 386.94 469.79
  L 387.26 486.00
  A 0.79 0.75 78.4 0 1 386.81 486.73
  Q 385.52 487.31 384.25 486.69
  A 0.84 0.75 -78.0 0 1 383.82 485.94
  L 384.06 465.78
  A 0.86 0.85 11.4 0 1 385.24 465.00
  Q 387.74 466.01 390.29 465.60
  Q 393.34 465.11 393.63 465.15
  Q 396.05 465.48 395.92 468.39
  Q 395.90 468.93 395.92 471.11
  Q 395.94 473.68 393.04 472.84
  A 0.69 0.68 -82.6 0 1 392.55 472.19
  L 392.45 468.81
  A 0.51 0.44 84.5 0 0 391.93 468.31
  Z"
/>
<path fill="#62b260" d="
  M 412.81 470.06
  Q 412.74 476.70 412.75 483.33
  Q 412.75 483.41 412.90 485.15
  Q 413.13 487.83 410.04 486.85
  A 0.69 0.68 -81.4 0 1 409.56 486.19
  L 409.56 468.94
  A 0.51 0.50 90.0 0 0 409.06 468.43
  Q 406.18 468.46 403.51 469.61
  A 0.79 0.76 78.5 0 0 403.06 470.32
  L 403.18 485.93
  A 0.76 0.73 78.7 0 1 402.73 486.64
  Q 398.94 488.18 399.75 483.50
  Q 400.32 480.18 399.83 466.43
  A 1.42 1.04 70.5 0 1 400.10 465.54
  Q 401.08 464.40 402.52 465.27
  A 1.69 0.64 73.8 0 1 403.09 466.03
  Q 403.38 466.67 404.00 466.50
  Q 406.65 465.77 407.98 465.46
  Q 409.87 465.01 410.02 465.02
  Q 411.11 465.02 412.01 466.19
  A 1.52 1.15 -21.7 0 0 413.42 466.58
  L 420.12 465.12
  Q 422.17 464.67 422.29 466.99
  Q 422.66 474.65 422.52 482.98
  Q 422.52 483.11 422.66 485.01
  Q 422.86 487.73 419.80 486.84
  A 0.68 0.68 -82.0 0 1 419.31 486.19
  L 419.26 469.08
  A 0.86 0.84 83.2 0 0 418.23 468.25
  L 413.29 469.44
  A 0.64 0.63 83.1 0 0 412.81 470.06
  Z"
/>
<path fill="#66b563" d="
  M 435.93 468.04
  L 431.07 468.04
  A 0.91 0.79 11.4 0 0 430.29 468.48
  Q 429.96 469.16 430.12 470.01
  A 0.61 0.53 75.6 0 1 429.79 470.68
  Q 425.99 472.07 427.18 466.97
  A 2.20 2.20 -87.7 0 1 429.00 465.29
  Q 434.03 464.52 438.17 465.38
  A 1.99 1.98 5.9 0 1 439.75 467.32
  L 439.75 486.52
  A 0.56 0.56 -84.1 0 1 439.08 487.07
  Q 434.14 486.05 429.49 487.00
  Q 427.09 487.50 426.76 485.06
  Q 426.22 480.97 426.80 476.05
  A 1.66 1.66 -20.0 0 1 427.85 474.70
  Q 430.77 473.59 435.43 474.14
  A 0.92 0.90 3.4 0 0 436.46 473.25
  L 436.46 468.56
  A 0.53 0.52 0.0 0 0 435.93 468.04
  Z
  M 436.4529 477.2388
  A 0.26 0.26 0.0 0 0 436.1889 476.9830
  L 430.1496 477.0778
  A 0.26 0.26 0.0 0 0 429.8938 477.3419
  L 429.9871 483.2812
  A 0.26 0.26 0.0 0 0 430.2511 483.5370
  L 436.2904 483.4422
  A 0.26 0.26 0.0 0 0 436.5462 483.1781
  L 436.4529 477.2388
  Z"
/>
<rect fill="#5fac61" x="-1.72" y="-10.95" transform="translate(458.70,475.99) rotate(-0.3)" width="3.44" height="21.90" rx="0.52"/>
<path fill="#62b260" d="
  M 477.9710 484.3133
  A 2.68 2.68 0.0 0 1 475.2817 486.9839
  L 467.2817 486.9560
  A 2.68 2.68 0.0 0 1 464.6111 484.2666
  L 464.6690 467.6867
  A 2.68 2.68 0.0 0 1 467.3583 465.0161
  L 475.3583 465.0440
  A 2.68 2.68 0.0 0 1 478.0289 467.7334
  L 477.9710 484.3133
  Z
  M 474.7440 468.5385
  A 0.54 0.54 0.0 0 0 474.2021 468.0004
  L 468.6822 468.0197
  A 0.54 0.54 0.0 0 0 468.1440 468.5616
  L 468.1960 483.4415
  A 0.54 0.54 0.0 0 0 468.7379 483.9796
  L 474.2578 483.9603
  A 0.54 0.54 0.0 0 0 474.7960 483.4184
  L 474.7440 468.5385
  Z"
/>
<path fill="#66b563" d="
  M 492.44 468.11
  L 486.54 469.40
  A 0.70 0.62 84.4 0 0 486.06 470.07
  L 485.94 486.18
  A 0.68 0.63 83.5 0 1 485.46 486.83
  Q 484.50 487.07 483.55 486.84
  A 0.69 0.65 -84.0 0 1 483.05 486.19
  Q 482.84 477.03 483.16 467.87
  Q 483.17 467.39 482.89 466.31
  Q 482.51 464.88 484.43 465.01
  Q 484.84 465.03 485.34 465.37
  Q 486.60 466.20 488.18 465.88
  Q 489.92 465.52 491.67 465.26
  Q 493.72 464.96 494.66 465.38
  Q 496.09 466.00 495.82 467.81
  Q 495.52 469.76 495.53 470.24
  Q 495.72 477.56 495.75 485.68
  A 1.30 1.30 -5.2 0 1 494.67 486.97
  Q 492.45 487.35 492.63 485.81
  Q 492.74 484.79 492.74 484.66
  Q 492.65 476.61 492.92 468.56
  A 0.44 0.40 85.5 0 0 492.44 468.11
  Z"
/>
<rect fill="#034c40" x="-3.34" y="-7.98" transform="translate(372.43,476.00) rotate(-0.4)" width="6.68" height="15.96" rx="0.59"/>
<rect fill="#034c40" x="-3.30" y="-7.98" transform="translate(471.47,475.99) rotate(-0.2)" width="6.60" height="15.96" rx="0.54"/>
<path fill="#e3f2f5" d="
  M 254.08 473.06
  L 253.88 474.22
  A 0.92 0.65 -6.3 0 1 253.21 474.81
  L 248.30 476.07
  Q 247.68 476.23 248.14 475.80
  L 253.84 470.54
  Q 254.27 470.14 254.40 470.72
  Q 254.54 471.42 254.28 472.12
  Q 254.22 472.27 254.08 473.06
  Z"
/>
<rect fill="#034c40" x="-3.28" y="-3.23" transform="translate(433.22,480.26) rotate(-0.9)" width="6.56" height="6.46" rx="0.26"/>
<path fill="#e3f2f5" d="
  M 232.87 489.46
  Q 231.72 490.61 229.65 490.69
  L 217.83 491.16
  A 0.29 0.19 1.4 0 1 217.51 490.94
  Q 217.52 490.84 217.61 490.76
  Q 217.67 490.69 217.78 490.67
  Q 229.78 488.13 240.27 481.82
  Q 240.74 481.53 240.34 481.93
  L 232.87 489.46
  Z"
/>
<path fill="#5cc9e2" d="
  M 264.33 482.69
  A 1.80 1.78 7.0 0 1 265.52 484.20
  Q 265.98 488.75 265.28 493.47
  Q 264.46 498.96 258.50 499.00
  Q 252.49 499.04 249.43 498.63
  A 0.70 0.69 -2.3 0 1 248.83 498.08
  Q 247.79 493.14 248.32 488.16
  Q 248.63 485.31 250.36 483.84
  Q 252.55 481.98 255.56 481.87
  Q 256.98 481.81 259.95 481.89
  Q 262.19 481.94 264.33 482.69
  Z"
/>
<path fill="#5cc9e2" d="
  M 194.50 500.58
  A 1.23 1.23 -86.3 0 1 193.56 499.51
  Q 193.17 496.01 193.29 492.75
  Q 193.42 488.83 194.65 486.99
  Q 196.48 484.25 200.50 484.05
  Q 204.64 483.85 208.77 484.25
  Q 210.73 484.44 210.75 486.42
  Q 210.80 491.09 210.69 495.94
  Q 210.63 498.46 208.60 499.85
  Q 207.28 500.75 204.70 501.10
  Q 199.56 501.77 194.50 500.58
  Z"
/>
<path fill="#62b260" d="
  M 339.02 500.00
  Q 339.56 515.65 339.08 531.31
  A 0.72 0.67 84.1 0 1 338.58 531.97
  Q 337.33 532.28 336.19 531.74
  A 0.84 0.77 -78.4 0 1 335.75 531.00
  Q 335.73 528.75 335.85 526.49
  Q 335.99 523.89 335.94 522.00
  Q 335.70 511.17 335.99 500.74
  Q 336.05 498.43 333.79 498.93
  Q 330.02 499.78 330.25 496.81
  A 0.63 0.60 -0.7 0 1 330.82 496.26
  Q 337.38 495.62 343.94 496.26
  A 1.11 0.96 -11.3 0 1 344.73 496.71
  Q 345.60 498.05 344.32 498.71
  Q 343.79 498.98 342.64 498.90
  Q 341.00 498.80 339.47 499.32
  A 0.70 0.67 79.9 0 0 339.02 500.00
  Z"
/>
<path fill="#62b260" d="
  M 391.89 513.16
  L 386.67 514.31
  A 0.66 0.64 84.5 0 0 386.17 514.94
  L 386.06 531.06
  A 0.76 0.72 81.1 0 1 385.59 531.75
  Q 382.77 532.78 382.89 529.95
  Q 382.98 528.10 382.97 528.06
  Q 382.55 512.44 382.80 496.81
  A 0.73 0.67 83.0 0 1 383.28 496.14
  Q 384.57 495.74 385.80 496.27
  A 0.81 0.76 -78.9 0 1 386.26 497.00
  L 386.05 510.58
  A 0.65 0.63 82.9 0 0 386.85 511.22
  Q 389.20 510.61 391.66 510.05
  Q 395.89 509.08 395.82 512.81
  Q 395.79 514.64 395.80 514.70
  Q 396.18 522.95 395.95 531.20
  A 0.70 0.69 -8.2 0 1 395.46 531.85
  Q 392.30 532.85 392.52 530.24
  Q 392.71 527.87 392.71 527.73
  Q 392.50 521.28 392.79 513.94
  A 0.76 0.75 85.3 0 0 391.89 513.16
  Z"
/>
<rect fill="#5fac61" x="435.96" y="496.02" width="3.54" height="35.94" rx="0.64"/>
<path fill="#4bc6e3" d="
  M 213.34 527.75
  Q 211.59 526.63 211.45 524.55
  Q 211.04 518.31 211.27 511.67
  Q 211.48 505.92 213.22 503.20
  Q 214.99 500.44 218.06 499.00
  Q 220.21 498.00 224.12 498.00
  Q 231.18 498.01 238.25 498.07
  Q 240.43 498.09 241.64 499.51
  Q 242.48 500.51 242.60 502.72
  Q 242.80 506.73 242.80 510.74
  Q 242.80 517.71 242.66 518.76
  Q 241.80 525.27 235.98 527.79
  Q 233.28 528.96 227.33 529.02
  Q 222.91 529.07 218.51 529.21
  Q 215.74 529.29 213.34 527.75
  Z"
/>
<path fill="#62b260" d="
  M 350.85 522.81
  L 350.96 528.07
  A 0.67 0.59 -84.5 0 0 351.41 528.69
  Q 354.08 529.35 356.82 528.90
  A 0.66 0.59 -5.2 0 0 357.37 528.31
  L 357.37 526.82
  A 0.62 0.51 86.3 0 1 357.80 526.22
  Q 362.44 525.41 360.39 530.47
  A 1.32 1.22 -89.0 0 1 359.74 531.15
  Q 357.60 532.13 355.26 532.17
  Q 352.04 532.23 350.74 532.07
  Q 347.42 531.68 347.64 527.80
  Q 347.75 525.76 347.75 525.70
  Q 347.75 521.16 347.75 516.62
  Q 347.75 516.52 347.63 514.39
  Q 347.39 510.26 350.93 509.90
  Q 352.12 509.78 355.57 509.88
  Q 357.69 509.94 359.71 510.64
  A 0.88 0.87 -86.6 0 1 360.29 511.30
  Q 361.22 516.00 360.59 520.61
  A 1.77 1.62 2.6 0 1 358.91 522.01
  L 351.31 522.25
  A 0.55 0.48 88.3 0 0 350.85 522.81
  Z
  M 357.3415 513.5589
  A 0.53 0.53 0.0 0 0 356.8096 513.0307
  L 351.4896 513.0493
  A 0.53 0.53 0.0 0 0 350.9615 513.5812
  L 350.9785 518.4611
  A 0.53 0.53 0.0 0 0 351.5104 518.9893
  L 356.8304 518.9707
  A 0.53 0.53 0.0 0 0 357.3585 518.4388
  L 357.3415 513.5589
  Z"
/>
<path fill="#62b260" d="
  M 369.05 513.81
  L 369.16 528.31
  A 0.59 0.53 89.5 0 0 369.69 528.89
  L 374.75 528.86
  A 0.98 0.87 77.3 0 0 375.50 527.51
  Q 374.27 524.54 377.16 524.95
  A 1.24 1.24 88.0 0 1 378.20 525.92
  Q 378.79 528.54 378.14 530.15
  Q 377.51 531.69 374.99 531.91
  Q 371.24 532.24 367.48 531.75
  A 1.72 1.72 2.2 0 1 365.99 530.14
  Q 365.57 522.01 365.60 513.75
  Q 365.61 509.84 369.50 509.94
  Q 372.25 510.00 375.00 510.00
  Q 378.22 510.00 378.55 512.69
  Q 378.67 513.63 378.80 515.17
  Q 378.88 516.20 378.59 517.22
  A 0.94 0.93 -2.0 0 1 377.98 517.86
  Q 374.44 519.06 375.41 514.19
  A 0.85 0.77 -83.9 0 0 374.67 513.18
  L 369.55 513.20
  A 0.60 0.50 89.4 0 0 369.05 513.81
  Z"
/>
<path fill="#62b260" d="
  M 404.27 514.82
  Q 403.67 522.87 404.16 530.93
  A 0.78 0.75 75.8 0 1 403.74 531.67
  Q 400.74 533.08 400.91 529.85
  Q 401.00 528.22 401.00 528.15
  Q 401.00 519.35 401.00 510.93
  A 0.91 0.91 9.6 0 1 402.21 510.07
  Q 406.42 511.52 410.33 510.06
  Q 413.48 508.88 413.55 512.21
  L 413.93 530.93
  A 0.94 0.83 74.5 0 1 413.54 531.73
  Q 412.13 532.63 410.91 531.54
  A 1.14 1.03 -70.9 0 1 410.55 530.69
  L 410.78 513.59
  A 0.43 0.41 85.6 0 0 410.30 513.16
  L 404.80 514.20
  A 0.69 0.66 86.8 0 0 404.27 514.82
  Z"
/>
<path fill="#62b260" d="
  M 431.9855 529.3116
  A 2.67 2.67 0.0 0 1 429.3108 531.9769
  L 421.3309 531.9630
  A 2.67 2.67 0.0 0 1 418.6655 529.2884
  L 418.6945 512.6884
  A 2.67 2.67 0.0 0 1 421.3692 510.0231
  L 429.3491 510.0370
  A 2.67 2.67 0.0 0 1 432.0145 512.7116
  L 431.9855 529.3116
  Z
  M 428.6663 513.3074
  A 0.30 0.30 0.0 0 0 428.3642 513.0095
  L 422.4444 513.0509
  A 0.30 0.30 0.0 0 0 422.1465 513.3529
  L 422.2537 528.7126
  A 0.30 0.30 0.0 0 0 422.5558 529.0105
  L 428.4756 528.9691
  A 0.30 0.30 0.0 0 0 428.7735 528.6671
  L 428.6663 513.3074
  Z"
/>
<path fill="#5fac61" d="
  M 458.1977 528.9361
  A 3.03 3.03 0.0 0 1 455.1783 531.9767
  L 447.5984 532.0032
  A 3.03 3.03 0.0 0 1 444.5578 528.9838
  L 444.5023 513.0639
  A 3.03 3.03 0.0 0 1 447.5217 510.0233
  L 455.1016 509.9968
  A 3.03 3.03 0.0 0 1 458.1422 513.0162
  L 458.1977 528.9361
  Z
  M 454.5907 513.4833
  A 0.48 0.48 0.0 0 0 454.1082 513.0059
  L 448.6683 513.0344
  A 0.48 0.48 0.0 0 0 448.1908 513.5169
  L 448.2693 528.5167
  A 0.48 0.48 0.0 0 0 448.7518 528.9941
  L 454.1917 528.9656
  A 0.48 0.48 0.0 0 0 454.6692 528.4831
  L 454.5907 513.4833
  Z"
/>
<path fill="#66b563" d="
  M 471.93 532.07
  Q 467.28 532.13 466.00 531.75
  Q 462.40 530.67 462.59 526.61
  Q 462.72 523.98 462.72 523.89
  Q 462.63 519.45 462.87 515.02
  Q 463.02 512.41 464.10 511.31
  Q 465.69 509.70 468.47 510.37
  Q 471.54 511.10 474.51 510.00
  A 0.92 0.92 -10.2 0 1 475.75 510.86
  L 475.75 537.59
  A 2.10 2.10 83.2 0 1 474.15 539.63
  Q 469.84 540.70 464.80 539.55
  A 1.42 1.18 -8.4 0 1 464.00 539.06
  Q 462.93 537.64 463.02 535.81
  A 0.80 0.77 81.2 0 1 463.52 535.10
  Q 465.04 534.53 466.25 535.75
  A 2.66 0.57 47.6 0 0 468.00 537.00
  L 471.76 537.00
  A 0.87 0.76 -0.3 0 0 472.63 536.23
  L 472.57 532.54
  A 0.63 0.47 -0.6 0 0 471.93 532.07
  Z
  M 472.5269 514.4888
  A 1.24 1.24 0.0 0 0 471.2826 513.2531
  L 467.3026 513.2670
  A 1.24 1.24 0.0 0 0 466.0669 514.5113
  L 466.1131 527.7312
  A 1.24 1.24 0.0 0 0 467.3574 528.9669
  L 471.3374 528.9530
  A 1.24 1.24 0.0 0 0 472.5731 527.7087
  L 472.5269 514.4888
  Z"
/>
<path fill="#66b563" d="
  M 485.92 526.69
  L 489.15 511.23
  A 1.46 1.08 83.7 0 1 489.62 510.42
  Q 490.75 509.55 492.07 510.23
  A 0.69 0.65 -69.2 0 1 492.38 510.99
  Q 489.01 525.01 485.40 538.98
  Q 485.02 540.46 482.49 539.80
  A 0.64 0.63 -72.2 0 1 482.06 538.96
  Q 483.14 536.16 483.53 533.53
  Q 483.87 531.24 483.07 528.04
  Q 480.93 519.51 478.85 510.68
  A 0.49 0.48 78.1 0 1 479.23 510.09
  Q 480.75 509.83 481.58 510.43
  Q 482.18 510.85 482.43 512.32
  Q 483.66 519.60 485.67 526.70
  Q 485.81 527.19 485.92 526.69
  Z"
/>
<rect fill="#034c40" x="-3.19" y="-2.97" transform="translate(354.16,516.01) rotate(-0.2)" width="6.38" height="5.94" rx="0.53"/>
<rect fill="#034c40" x="-3.26" y="-7.98" transform="translate(425.46,521.01) rotate(-0.4)" width="6.52" height="15.96" rx="0.30"/>
<rect fill="#034c40" x="-3.20" y="-7.98" transform="translate(451.43,521.00) rotate(-0.3)" width="6.40" height="15.96" rx="0.48"/>
<rect fill="#034c40" x="-3.23" y="-7.85" transform="translate(469.32,521.11) rotate(-0.2)" width="6.46" height="15.70" rx="1.24"/>
<ellipse fill="#5fac61" cx="0.00" cy="0.00" transform="translate(249.92,519.42) rotate(133.9)" rx="0.65" ry="0.56"/>
<path fill="#16bbdd" d="
  M 258.72 528.50
  A 1.84 1.80 16.3 0 1 259.42 529.75
  Q 259.81 533.43 259.72 536.79
  Q 259.58 542.34 259.23 543.70
  Q 258.55 546.30 256.38 547.98
  Q 254.74 549.24 251.80 549.69
  Q 245.42 550.66 239.56 549.64
  Q 236.75 549.15 236.75 546.30
  Q 236.75 541.37 236.78 536.50
  Q 236.82 527.94 245.50 527.25
  Q 250.19 526.88 253.70 527.13
  Q 256.29 527.32 256.31 527.32
  Q 257.51 527.57 258.72 528.50
  Z"
/>
</svg>
